<?xml version="1.0" encoding="UTF-8" standalone="no"?>
<!DOCTYPE svg  PUBLIC '-//W3C//DTD SVG 1.1//EN'  'http://www.w3.org/Graphics/SVG/1.1/DTD/svg11.dtd'>
<svg xmlns="http://www.w3.org/2000/svg" version="1.1">
<defs>
<font id="Fakt-Medium" horiz-adv-x="568">
<font-face bbox="-174 -240 1128 957" units-per-em="1000" unicode-range="U+0020-F7FF" font-family="Fakt Med" font-weight="500" underline-position="-150" cap-height="688" panose-1="2 0 0 0 0 0 0 0 0 0" x-height="488" ascent="800" descent="-200" underline-thickness="50"/>
<missing-glyph d="M232 184l126 129l126 -129l52 52l-127 130l127 130l-52 52l-126 -129l-126 129l-52 -52l126 -130l-126 -130zM0 0v720h712v-720h-712z" horiz-adv-x="712"/>
<glyph d="M398 622v110h116v-110h-116zM402 0v404h-199v-404h-108v404h-92v84h92v69q0 89 42.5 132t133.5 43h54v-88h-40q-45 0 -63.5 -20.5t-18.5 -66.5v-69h307v-488h-108z" horiz-adv-x="583" glyph-name="fi" unicode="fi"/>
<glyph d="M95 0v404h-92v84h92v69q0 89 42.5 132t133.5 43h239v-732h-108v644h-117q-45 0 -63.5 -20.5t-18.5 -66.5v-69h103v-84h-103v-404h-108z" horiz-adv-x="583" glyph-name="fl" unicode="fl"/>
<glyph d="M232 184l126 129l126 -129l52 52l-127 130l127 130l-52 52l-126 -129l-126 129l-52 -52l126 -130l-126 -130zM0 0v720h712v-720h-712z" horiz-adv-x="712" glyph-name=".notdef"/>
<glyph horiz-adv-x="0" glyph-name=".null"/>
<glyph horiz-adv-x="333" glyph-name="nonmarkingreturn"/>
<glyph horiz-adv-x="220" glyph-name="space" unicode=" "/>
<glyph d="M82 0v120h119v-120h-119zM111 198l-30 300v190h122v-190l-31 -300h-61z" horiz-adv-x="284" glyph-name="exclam" unicode="!"/>
<glyph d="M264 421l-17 176v91h103v-91l-17 -176h-69zM78 421l-17 176v91h103v-91l-17 -176h-69z" horiz-adv-x="411" glyph-name="quotedbl" unicode='&quot;'/>
<glyph d="M263 450l-36 -209h134l36 209h-134zM61 450v78h124l28 160h92l-28 -160h134l28 160h92l-28 -160h102v-78h-116l-36 -209h109v-79h-123l-28 -162h-92l28 162h-134l-28 -162h-92l28 162h-103v79h117l36 209h-110z" horiz-adv-x="623" glyph-name="numbersign" unicode="#"/>
<glyph d="M38 194h108q4 -58 40.5 -90t93.5 -32q59 0 94.5 30t35.5 83q0 44 -28 66t-87 40l-85 26q-29 9 -54 22.5t-49.5 35t-38.5 55.5t-14 76q0 74 49 125.5t129 64.5v108h96v-108q75 -12 124 -60.5t54 -121.5h-108q-6 51 -38 76t-80 25q-50 0 -82.5 -25t-32.5 -73 q0 -44 24.5 -66t82.5 -40l85 -26q83 -25 124 -71t41 -120q0 -83 -53 -137t-141 -66v-111h-96v111q-88 12 -139.5 65.5t-54.5 137.5z" glyph-name="dollar" unicode="$"/>
<glyph d="M614 60q67 0 67 112t-67 112q-68 0 -68 -112t68 -112zM614 -8q-76 0 -115.5 50t-39.5 130t39.5 130t115.5 50q77 0 115.5 -50t38.5 -130t-38.5 -130t-115.5 -50zM186 -12q29 59 104 213t139.5 286t104.5 213h74l-348 -712h-74zM180 404q67 0 67 112t-67 112 q-68 0 -68 -112t68 -112zM180 336q-76 0 -115.5 50t-39.5 130t39.5 130t115.5 50t115 -50t39 -130t-39 -130t-115 -50z" horiz-adv-x="793" glyph-name="percent" unicode="%"/>
<glyph d="M219 536q0 -28 15.5 -53t54.5 -64q60 28 91 54.5t31 65.5q0 37 -25 60t-69 23q-47 0 -72.5 -24.5t-25.5 -61.5zM310 72q91 0 148 48l-200 199q-51 -26 -78.5 -56t-27.5 -73q0 -55 44.5 -86.5t113.5 -31.5zM43 180q0 72 41.5 117t114.5 81q-45 48 -62.5 81t-17.5 73 q0 69 53 118.5t145 49.5t144.5 -43.5t52.5 -114.5q0 -66 -43.5 -106.5t-122.5 -75.5l166 -166q27 58 27 139v11h97v-20q0 -109 -56 -198l126 -126h-129l-58 57q-82 -69 -211 -69q-127 0 -197 52t-70 140z" horiz-adv-x="720" glyph-name="ampersand" unicode="&amp;"/>
<glyph d="M78 421l-17 176v91h103v-91l-17 -176h-69z" horiz-adv-x="225" glyph-name="quotesingle" unicode="&apos;"/>
<glyph d="M19 260q0 144 49.5 270.5t114.5 213.5h99q-56 -73 -108 -207.5t-52 -276.5q0 -141 52 -275.5t108 -212.5h-99q-65 86 -114.5 215t-49.5 273z" horiz-adv-x="297" glyph-name="parenleft" unicode="("/>
<glyph d="M15 -228q56 78 108 212.5t52 275.5q0 142 -52 276.5t-108 207.5h98q65 -87 114.5 -213.5t49.5 -270.5t-49.5 -273t-114.5 -215h-98z" horiz-adv-x="297" glyph-name="parenright" unicode=")"/>
<glyph d="M190 696h83l-16 -129l117 56l26 -80l-127 -25l88 -93l-67 -49l-63 112l-62 -111l-67 48l86 94l-124 24l25 80l116 -54z" horiz-adv-x="463" glyph-name="asterisk" unicode="*"/>
<glyph d="M57 210v88h181v182h92v-182h181v-88h-181v-181h-92v181h-181z" glyph-name="plus" unicode="+"/>
<glyph d="M127 0h-55v128h129v-120l-50 -170h-57z" horiz-adv-x="273" glyph-name="comma" unicode=","/>
<glyph d="M56 205v94h284v-94h-284z" horiz-adv-x="396" glyph-name="hyphen" unicode="-"/>
<glyph d="M72 0v128h129v-128h-129z" horiz-adv-x="273" glyph-name="period" unicode="."/>
<glyph d="M6 -12l308 712h93l-308 -712h-93z" horiz-adv-x="413" glyph-name="slash" unicode="/"/>
<glyph d="M284 81q133 0 133 263t-133 263t-133 -263t133 -263zM284 -12q-125 0 -185.5 97.5t-60.5 258.5t60.5 258.5t185.5 97.5t185.5 -97.5t60.5 -258.5t-60.5 -258.5t-185.5 -97.5z" glyph-name="zero" unicode="0"/>
<glyph d="M103 453l-47 80l226 155h76v-598h160v-90h-439v90h171v464z" glyph-name="one" unicode="1"/>
<glyph d="M50 0q4 114 42 181.5t123 122.5l78 51q32 21 46.5 32.5t31.5 29t23.5 37.5t6.5 46q0 45 -29 77.5t-86 32.5q-115 0 -124 -129h-102q5 115 68.5 167t158.5 52q100 0 161.5 -53t61.5 -145q0 -42 -10.5 -74.5t-34 -58.5t-44.5 -42.5t-58 -40.5l-77 -51q-64 -42 -86 -75 t-26 -70h341l1 -90h-466z" glyph-name="two" unicode="2"/>
<glyph d="M42 208h106q0 -66 36 -99.5t96 -33.5q59 0 95.5 31t36.5 87q0 53 -38 85.5t-94 32.5h-53v89h53q48 0 80.5 30.5t32.5 79.5q0 48 -32.5 75.5t-80.5 27.5q-49 0 -81 -29.5t-32 -85.5h-98q0 93 58.5 147.5t152.5 54.5q96 0 156 -51.5t60 -134.5q0 -49 -29.5 -93.5 t-70.5 -60.5v-4q55 -16 90.5 -62.5t35.5 -108.5q0 -91 -68.5 -144t-173.5 -53q-111 0 -174.5 55t-63.5 165z" glyph-name="three" unicode="3"/>
<glyph d="M136 251h202v278zM28 161v73l328 454h90v-437h94v-90h-94v-161h-108v161h-310z" glyph-name="four" unicode="4"/>
<glyph d="M44 184h108q7 -45 39.5 -76.5t91.5 -31.5q54 0 92.5 36.5t38.5 100.5t-37 101.5t-94 37.5q-66 0 -118 -65l-99 8l21 393h396v-93h-299l-11 -197h4q45 42 124 42q96 0 158.5 -59t62.5 -161q0 -112 -69 -172t-170 -60q-107 0 -169 52.5t-70 143.5z" glyph-name="five" unicode="5"/>
<glyph d="M302 352q-57 0 -95.5 -39t-38.5 -98q0 -60 36 -99.5t92 -39.5q57 0 94 37.5t37 102.5q0 60 -36 98t-89 38zM43 328q0 100 22 174.5t60 116t83.5 61.5t98.5 20q97 0 150 -49.5t62 -134.5h-107q-13 96 -106 96q-61 0 -103 -60.5t-47 -192.5q20 36 66 58.5t98 22.5 q93 0 154 -60t61 -163q0 -106 -69.5 -167.5t-166.5 -61.5q-115 0 -185.5 81t-70.5 259z" glyph-name="six" unicode="6"/>
<glyph d="M131 0l280 592h-363v96h480v-71l-285 -617h-112z" glyph-name="seven" unicode="7"/>
<glyph d="M284 400q50 0 83 30.5t33 79.5q0 48 -33 77t-83 29t-83 -29t-33 -77q0 -49 33 -79.5t83 -30.5zM149 193q0 -56 37 -87t98 -31t98 31t37 87q0 53 -38.5 85.5t-96.5 32.5t-96.5 -32.5t-38.5 -85.5zM39 185q0 62 35.5 108.5t90.5 62.5v4q-43 15 -71.5 58.5t-28.5 94.5 q0 84 60 135.5t159 51.5t159 -51.5t60 -135.5q0 -51 -28.5 -94.5t-71.5 -58.5v-4q55 -16 90.5 -62.5t35.5 -108.5q0 -92 -67 -144.5t-178 -52.5t-178 52.5t-67 144.5z" glyph-name="eight" unicode="8"/>
<glyph d="M265 336q57 0 95.5 39t38.5 97q0 61 -36 100.5t-91 39.5q-56 0 -93.5 -37.5t-37.5 -102.5q0 -60 36 -98t88 -38zM524 360q0 -372 -257 -372q-99 0 -153 49t-66 135h107q17 -96 113 -96q66 0 102 58.5t40 194.5q-20 -37 -65 -59t-97 -22q-94 0 -155 59.5t-61 163.5 q0 106 69.5 167.5t166.5 61.5q115 0 185.5 -81t70.5 -259z" glyph-name="nine" unicode="9"/>
<glyph d="M72 0v128h129v-128h-129zM72 360v128h129v-128h-129z" horiz-adv-x="273" glyph-name="colon" unicode=":"/>
<glyph d="M127 0h-55v128h129v-120l-50 -170h-57zM72 360v128h129v-128h-129z" horiz-adv-x="273" glyph-name="semicolon" unicode=";"/>
<glyph d="M72 210v89l424 179v-95l-320 -127l320 -128v-98z" glyph-name="less" unicode="&lt;"/>
<glyph d="M56 104v88h456v-88h-456zM56 316v88h456v-88h-456z" glyph-name="equal" unicode="="/>
<glyph d="M496 298v-89l-424 -179v95l320 127l-320 128v98z" glyph-name="greater" unicode="&gt;"/>
<glyph d="M190 0v120h119v-120h-119zM198 202v26q0 51 17.5 88.5t43 59t51 39.5t43 42t17.5 54q0 43 -29.5 71t-78.5 28q-62 0 -92.5 -36.5t-30.5 -93.5h-105q0 93 58 156.5t170 63.5q97 0 157.5 -49.5t60.5 -134.5q0 -46 -18.5 -80t-44.5 -55t-52 -40t-44.5 -45t-18.5 -60v-34 h-104z" horiz-adv-x="510" glyph-name="question" unicode="?"/>
<glyph d="M612 200v45q-14 -17 -50 -23l-87 -14q-77 -12 -77 -73q0 -32 22.5 -51t61.5 -19q55 0 92.5 34.5t37.5 100.5zM291 128q0 123 163 148l95 15q40 7 51.5 13.5t11.5 24.5q0 90 -96 90q-98 0 -104 -86h-102q5 76 59 121.5t144 45.5q103 0 155 -47.5t52 -137.5v-150 q0 -107 73 -107q46 0 78 54t32 160q0 164 -107.5 261t-275.5 97q-176 0 -283 -114.5t-107 -285.5q0 -172 103.5 -280t268.5 -108q140 0 212 72h107q-108 -142 -319 -142q-199 0 -326.5 129t-127.5 329q0 199 131 334.5t341 135.5q202 0 333.5 -118t131.5 -310 q0 -141 -60 -211t-149 -70q-110 0 -143 79q-51 -82 -177 -82q-78 0 -121.5 38.5t-43.5 101.5z" horiz-adv-x="1033" glyph-name="at" unicode="@"/>
<glyph d="M333 576h-4l-112 -315h227zM10 0l256 688h133l256 -688h-119l-59 167h-294l-59 -167h-114z" horiz-adv-x="665" glyph-name="A" unicode="A"/>
<glyph d="M377 595h-183v-194h182q58 0 88.5 28.5t30.5 74.5q0 91 -118 91zM396 310h-202v-217h202q62 0 94 30.5t32 82.5q0 47 -32 75.5t-94 28.5zM81 0v688h304q111 0 167 -47t56 -133q0 -51 -27.5 -89t-80.5 -54v-4q63 -11 99.5 -54t36.5 -103q0 -91 -60.5 -147.5t-170.5 -56.5 h-324z" horiz-adv-x="682" glyph-name="B" unicode="B"/>
<glyph d="M44 344q0 155 93.5 255.5t244.5 100.5q122 0 199.5 -63t98.5 -171h-115q-37 134 -183 134q-100 0 -160.5 -71t-60.5 -185q0 -112 60.5 -184t157.5 -72q149 0 186 134h115q-21 -108 -100 -171t-202 -63q-150 0 -242 99.5t-92 256.5z" horiz-adv-x="722" glyph-name="C" unicode="C"/>
<glyph d="M308 592h-111v-496h111q129 0 189.5 69.5t60.5 178.5t-60.5 178.5t-189.5 69.5zM84 0v688h229q174 0 268.5 -94.5t94.5 -249.5t-94.5 -249.5t-268.5 -94.5h-229z" horiz-adv-x="720" glyph-name="D" unicode="D"/>
<glyph d="M84 0v688h482v-96h-369v-195h296v-93h-296v-208h378v-96h-491z" horiz-adv-x="626" glyph-name="E" unicode="E"/>
<glyph d="M84 0v688h472v-96h-359v-229h286v-95h-286v-268h-113z" horiz-adv-x="590" glyph-name="F" unicode="F"/>
<glyph d="M620 0l-15 91h-3q-69 -103 -218 -103q-151 0 -245.5 100.5t-94.5 255.5q0 156 96 256t250 100q123 0 203.5 -61.5t100.5 -157.5h-115q-16 52 -64 85.5t-125 33.5q-103 0 -166 -71.5t-63 -184.5t63 -184.5t163 -71.5q87 0 146 48t59 129v12h-202v91h303v-368h-73z" horiz-adv-x="767" glyph-name="G" unicode="G"/>
<glyph d="M84 0v688h113v-292h346v292h114v-688h-114v300h-346v-300h-113z" horiz-adv-x="741" glyph-name="H" unicode="H"/>
<glyph d="M84 0v688h113v-688h-113z" horiz-adv-x="282" glyph-name="I" unicode="I"/>
<glyph d="M36 201v32h112v-26q0 -123 100 -123t100 126v478h113v-482q0 -218 -213 -218q-99 0 -155.5 51.5t-56.5 161.5z" horiz-adv-x="534" glyph-name="J" unicode="J"/>
<glyph d="M84 0v688h113v-348l323 348h132l-281 -298l295 -390h-129l-239 313l-101 -107v-206h-113z" horiz-adv-x="674" glyph-name="K" unicode="K"/>
<glyph d="M84 0v688h113v-591h333v-97h-446z" horiz-adv-x="561" glyph-name="L" unicode="L"/>
<glyph d="M84 0v688h146l231 -535h3l228 535h144v-688h-113l9 524h-4l-224 -524h-87l-224 515h-4l8 -515h-113z" horiz-adv-x="921" glyph-name="M" unicode="M"/>
<glyph d="M84 0v688h105l362 -496h4l-4 496h114v-688h-104l-364 494h-4l4 -494h-113z" horiz-adv-x="749" glyph-name="N" unicode="N"/>
<glyph d="M161 344q0 -112 62.5 -184t163.5 -72q102 0 164.5 72t62.5 184t-62.5 184t-164.5 72q-101 0 -163.5 -72t-62.5 -184zM44 344q0 156 94.5 256t248.5 100q151 0 247.5 -100.5t96.5 -255.5t-96.5 -255.5t-247.5 -100.5q-154 0 -248.5 100t-94.5 256z" horiz-adv-x="775" glyph-name="O" unicode="O"/>
<glyph d="M358 594h-161v-268h161q68 0 104 38.5t36 98.5t-36 95.5t-104 35.5zM84 0v688h279q118 0 183.5 -61.5t65.5 -162.5q0 -102 -66 -166.5t-183 -64.5h-166v-233h-113z" horiz-adv-x="655" glyph-name="P" unicode="P"/>
<glyph d="M161 344q0 -112 62.5 -184t163.5 -72q102 0 164.5 72t62.5 184t-62.5 184t-164.5 72q-101 0 -163.5 -72t-62.5 -184zM44 344q0 156 94.5 256t248.5 100q151 0 247.5 -100.5t96.5 -255.5q0 -161 -104 -263l129 -135l-74 -73l-140 148q-71 -33 -155 -33q-154 0 -248.5 100 t-94.5 256z" horiz-adv-x="778" glyph-name="Q" unicode="Q"/>
<glyph d="M361 594h-164v-242h164q64 0 99 35t35 91q0 54 -35 85t-99 31zM84 0v688h278q120 0 183.5 -55t63.5 -154q0 -76 -38 -130.5t-110 -76.5l173 -272h-123l-165 259h-149v-259h-113z" horiz-adv-x="673" glyph-name="R" unicode="R"/>
<glyph d="M53 196h112q0 -54 43.5 -87t116.5 -33q77 0 120.5 30.5t43.5 85.5q0 34 -23.5 56t-61 32t-82.5 18t-90.5 19.5t-83 30t-61 56t-23.5 92.5q0 90 71.5 147t190.5 57q117 0 187.5 -53t70.5 -144h-111q0 51 -41 80t-106 29q-66 0 -107.5 -27.5t-41.5 -77.5q0 -34 23.5 -55.5 t61.5 -31.5t83.5 -17.5t91 -19.5t83.5 -31t61.5 -57t23.5 -94q0 -97 -74 -155t-206 -58q-129 0 -200.5 56t-71.5 152z" horiz-adv-x="658" glyph-name="S" unicode="S"/>
<glyph d="M8 593v95h586v-95h-237v-593h-113v593h-236z" horiz-adv-x="602" glyph-name="T" unicode="T"/>
<glyph d="M70 274v414h113v-413q0 -90 43.5 -138.5t129.5 -48.5t129.5 48t43.5 139v413h113v-414q0 -286 -286 -286q-134 0 -210 68.5t-76 217.5z" horiz-adv-x="713" glyph-name="U" unicode="U"/>
<glyph d="M257 0l-249 688h119l195 -576h4l197 576h114l-250 -688h-130z" horiz-adv-x="645" glyph-name="V" unicode="V"/>
<glyph d="M191 0l-180 688h120l135 -568h4l149 568h126l151 -568h4l130 568h116l-177 -688h-141l-146 551h-4l-146 -551h-141z" horiz-adv-x="957" glyph-name="W" unicode="W"/>
<glyph d="M8 0l239 351l-231 337h129l167 -251l166 251h123l-227 -334l243 -354h-128l-180 267l-177 -267h-124z" horiz-adv-x="625" glyph-name="X" unicode="X"/>
<glyph d="M260 0v266l-249 422h128l178 -310h4l185 310h119l-252 -417v-271h-113z" horiz-adv-x="637" glyph-name="Y" unicode="Y"/>
<glyph d="M52 594v94h511v-69l-383 -525h380v-94h-525v69l383 525h-366z" horiz-adv-x="598" glyph-name="Z" unicode="Z"/>
<glyph d="M180 -142h145v-86h-243v972h243v-86h-145v-800z" horiz-adv-x="340" glyph-name="bracketleft" unicode="["/>
<glyph d="M314 -12l-308 712h93l308 -712h-93z" horiz-adv-x="413" glyph-name="backslash" unicode="\"/>
<glyph d="M15 -142h145v800h-145v86h244v-972h-244v86z" horiz-adv-x="340" glyph-name="bracketright" unicode="]"/>
<glyph d="M50 352l185 336h93v-1l6 1l185 -336h-104l-132 249l-132 -249h-101z" glyph-name="asciicircum" unicode="^"/>
<glyph d="M0 -72h500v-85h-500v85z" horiz-adv-x="500" glyph-name="underscore" unicode="_"/>
<glyph d="M249 568l-146 164h120l102 -164h-76z" horiz-adv-x="573" glyph-name="grave" unicode="`"/>
<glyph d="M366 200v45q-14 -17 -50 -23l-84 -14q-79 -12 -79 -72q0 -31 21.5 -49t61.5 -18q55 0 92.5 34t37.5 97zM45 125q0 62 39 98.5t124 50.5l95 16q37 6 50 12.5t13 20.5q0 96 -96 96q-47 0 -73.5 -23t-29.5 -63h-103q5 76 60 121.5t146 45.5q101 0 152.5 -46t51.5 -133v-321 h-103v61h-5q-45 -73 -156 -73q-79 0 -122 37t-43 100z" horiz-adv-x="541" glyph-name="a" unicode="a"/>
<glyph d="M181 244q0 -78 37.5 -123.5t96.5 -45.5t96 47t37 126q0 78 -37 121.5t-96 43.5q-57 0 -94.5 -43t-39.5 -118v-8zM73 0v732h108v-153q0 -100 -4 -164h4q43 85 162 85q95 0 156.5 -67t61.5 -185t-64.5 -189t-161.5 -71q-111 0 -154 85h-4v-73h-104z" horiz-adv-x="600" glyph-name="b" unicode="b"/>
<glyph d="M38 244q0 117 68 186.5t175 69.5q97 0 155 -50t67 -129h-107q-7 41 -36 66.5t-79 25.5q-57 0 -94 -47t-37 -122t37 -122t94 -47q98 0 115 92h107q-9 -80 -66.5 -129.5t-155.5 -49.5q-113 0 -178 68t-65 188z" horiz-adv-x="534" glyph-name="c" unicode="c"/>
<glyph d="M151 240q0 -78 37 -121.5t96 -43.5t96.5 45t37.5 124t-37.5 124t-96.5 45q-58 0 -95.5 -47t-37.5 -126zM39 240q0 118 64.5 189t161.5 71q111 0 154 -85h4q-5 64 -5 164v153h108v-732h-103v73h-4q-43 -85 -162 -85q-95 0 -156.5 67t-61.5 185z" horiz-adv-x="600" glyph-name="d" unicode="d"/>
<glyph d="M280 416q-48 0 -81.5 -31t-44.5 -86h244q-13 117 -118 117zM38 243q0 115 68 186t174 71q104 0 166 -63t62 -175v-36h-359q5 -71 41 -112t94 -41q48 0 76.5 21.5t36.5 53.5h106q-11 -68 -71 -114t-149 -46q-117 0 -181 67.5t-64 187.5z" horiz-adv-x="544" glyph-name="e" unicode="e"/>
<glyph d="M95 0v404h-92v84h92v69q0 89 42.5 132t133.5 43h65v-88h-51q-45 0 -63.5 -20.5t-18.5 -66.5v-69h117v-84h-117v-404h-108z" horiz-adv-x="325" glyph-name="f" unicode="f"/>
<glyph d="M151 240q0 -78 37 -121.5t96 -43.5t96.5 45t37.5 124v8q-2 75 -39 118t-95 43t-95.5 -47t-37.5 -126zM52 -60h102q1 -40 35 -63.5t88 -23.5q146 0 146 172v48h-4q-43 -85 -162 -85q-95 0 -156.5 67t-61.5 185t64.5 189t161.5 71q111 0 154 -85h4v73h103v-463 q0 -131 -67 -192t-182 -61q-101 0 -162.5 43t-62.5 125z" horiz-adv-x="600" glyph-name="g" unicode="g"/>
<glyph d="M73 0v732h108v-151q0 -100 -4 -164h4q42 83 151 83q81 0 132 -48.5t51 -155.5v-296h-108v282q0 130 -104 130q-53 0 -87.5 -43.5t-34.5 -114.5v-254h-108z" horiz-adv-x="581" glyph-name="h" unicode="h"/>
<glyph d="M73 0v488h108v-488h-108zM69 622v110h116v-110h-116z" horiz-adv-x="255" glyph-name="i" unicode="i"/>
<glyph d="M73 -59v547h108v-559q0 -72 -35 -110.5t-118 -38.5h-37v88h25q31 0 44 17.5t13 55.5zM69 622v110h116v-110h-116z" horiz-adv-x="255" glyph-name="j" unicode="j"/>
<glyph d="M73 0v732h108v-463l198 219h125l-182 -195l201 -293h-126l-147 215l-69 -74v-141h-108z" horiz-adv-x="527" glyph-name="k" unicode="k"/>
<glyph d="M73 0v732h108v-732h-108z" horiz-adv-x="255" glyph-name="l" unicode="l"/>
<glyph d="M73 0v488h104v-71h4q42 83 148 83q116 0 155 -97q47 97 164 97q78 0 125.5 -47.5t47.5 -150.5v-302h-108v289q0 66 -23 94.5t-71 28.5q-50 0 -84 -42t-34 -113v-257h-108v289q0 66 -24 94.5t-70 28.5q-50 0 -84 -42.5t-34 -113.5v-256h-108z" horiz-adv-x="887" glyph-name="m" unicode="m"/>
<glyph d="M73 0v488h104v-71h4q42 83 151 83q81 0 132 -48.5t51 -155.5v-296h-108v282q0 130 -104 130q-53 0 -87.5 -42.5t-34.5 -114.5v-255h-108z" horiz-adv-x="581" glyph-name="n" unicode="n"/>
<glyph d="M151 244q0 -76 37.5 -122.5t99.5 -46.5t99.5 46.5t37.5 122.5q0 79 -37.5 124t-99.5 45t-99.5 -46.5t-37.5 -122.5zM39 244q0 117 69.5 186.5t179.5 69.5q114 0 181.5 -68.5t67.5 -187.5q0 -117 -69.5 -186.5t-179.5 -69.5q-114 0 -181.5 68.5t-67.5 187.5z" horiz-adv-x="577" glyph-name="o" unicode="o"/>
<glyph d="M448 248q0 78 -37 121.5t-96 43.5q-57 0 -94.5 -43t-39.5 -118v-8q0 -78 37.5 -123.5t96.5 -45.5t96 47t37 126zM181 -91v-129h-108v708h104v-73h4q43 85 162 85q95 0 156.5 -67t61.5 -185t-64.5 -189t-161.5 -71q-111 0 -154 85h-4q4 -64 4 -164z" horiz-adv-x="600" glyph-name="p" unicode="p"/>
<glyph d="M151 240q0 -78 37 -121.5t96 -43.5q58 0 95 43t39 118v8q0 79 -37.5 124t-96.5 45q-58 0 -95.5 -47t-37.5 -126zM418 -91q0 100 5 164h-4q-43 -85 -162 -85q-95 0 -156.5 67t-61.5 185t64.5 189t161.5 71q111 0 154 -85h4v73h103v-708h-108v129z" horiz-adv-x="597" glyph-name="q" unicode="q"/>
<glyph d="M73 0v488h104v-71h3q38 83 129 83q39 0 68 -20l-28 -96q-32 16 -60 16q-52 0 -80 -44t-28 -112v-244h-108z" horiz-adv-x="377" glyph-name="r" unicode="r"/>
<glyph d="M37 140h103q0 -38 32 -57t76 -19q112 0 112 71q0 26 -18 39.5t-56 19.5l-90 16q-147 24 -147 134q0 73 57.5 114.5t146.5 41.5q90 0 146 -37.5t56 -110.5h-101q0 35 -28 53.5t-73 18.5q-44 0 -72 -18t-28 -49q0 -25 18.5 -38.5t62.5 -21.5l90 -15q67 -11 105.5 -41 t38.5 -93q0 -78 -59.5 -119t-160.5 -41q-95 0 -153 39t-58 113z" horiz-adv-x="509" glyph-name="s" unicode="s"/>
<glyph d="M88 156v248h-92v84h92v148h108v-148h125v-84h-125v-242q0 -39 15.5 -55.5t52.5 -16.5h57v-90h-75q-84 0 -121 37t-37 119z" horiz-adv-x="345" glyph-name="t" unicode="t"/>
<glyph d="M65 192v296h108v-282q0 -130 104 -130q53 0 86 43t33 117v252h108v-488h-103v71h-4q-42 -83 -148 -83q-81 0 -132.5 48.5t-51.5 155.5z" horiz-adv-x="577" glyph-name="u" unicode="u"/>
<glyph d="M186 0l-182 488h118l127 -376h4l127 376h109l-177 -488h-126z" horiz-adv-x="493" glyph-name="v" unicode="v"/>
<glyph d="M146 0l-141 488h110l95 -379h4l105 379h115l106 -379h4l94 379h107l-141 -488h-126l-101 378h-4l-101 -378h-126z" horiz-adv-x="750" glyph-name="w" unicode="w"/>
<glyph d="M10 0l173 246l-169 242h124l110 -165l107 165h115l-169 -241l173 -247h-124l-114 171l-111 -171h-115z" horiz-adv-x="484" glyph-name="x" unicode="x"/>
<glyph d="M186 0l-182 488h118l127 -376h4l127 376h109l-201 -556q-57 -160 -187 -160h-54v89h32q84 0 118 95l15 44h-26z" horiz-adv-x="493" glyph-name="y" unicode="y"/>
<glyph d="M32 403v85h393v-67l-252 -336h256v-85h-394v61l258 342h-261z" horiz-adv-x="461" glyph-name="z" unicode="z"/>
<glyph d="M128 -72v164q0 76 -22.5 104t-89.5 28v76q67 0 89.5 28t22.5 104v156q0 81 37.5 118.5t128.5 37.5h61v-83h-50q-45 0 -61.5 -18t-16.5 -62v-183q0 -55 -23 -87t-77 -47v-4q54 -15 77 -47t23 -87v-191q0 -44 16.5 -62t61.5 -18h50v-83h-61q-91 0 -128.5 37.5t-37.5 118.5z " horiz-adv-x="370" glyph-name="braceleft" unicode="{"/>
<glyph d="M88 -240v1000h95v-1000h-95z" horiz-adv-x="271" glyph-name="bar" unicode="|"/>
<glyph d="M15 -145h50q45 0 61.5 18t16.5 62v191q0 55 23 87t77 47v4q-54 15 -77 47t-23 87v183q0 44 -16.5 62t-61.5 18h-50v83h60q92 0 129 -37.5t37 -118.5v-156q0 -76 22.5 -104t89.5 -28v-76q-67 0 -89.5 -28t-22.5 -104v-164q0 -81 -37 -118.5t-129 -37.5h-60v83z" horiz-adv-x="370" glyph-name="braceright" unicode="}"/>
<glyph d="M52 179q0 81 38 122t95 41q39 0 76 -18t67 -36.5t53 -18.5q50 0 50 75h86q0 -80 -37.5 -121.5t-92.5 -41.5q-39 0 -77 19.5t-69 38.5t-53 19q-50 0 -50 -79h-86z" glyph-name="asciitilde" unicode="~"/>
<glyph d="M82 -10l29 300h61l30 -300v-190h-120v190zM82 368v120h119v-120h-119z" horiz-adv-x="284" glyph-name="exclamdown" unicode="¡"/>
<glyph d="M248 -12v107q-93 15 -145.5 82t-52.5 171q0 102 56 169.5t146 82.5v100h96v-100q76 -12 121.5 -59.5t53.5 -115.5h-107q-7 41 -37 66.5t-82 25.5q-60 0 -97.5 -47t-37.5 -122t37.5 -122t97.5 -47q52 0 82 25.5t37 66.5h107q-8 -69 -54 -116.5t-125 -59.5v-107h-96z" glyph-name="cent" unicode="¢"/>
<glyph d="M116 46q45 0 63 68q-35 21 -61 21q-20 0 -33.5 -13t-13.5 -32q0 -20 11.5 -32t33.5 -12zM60 322v68h83q-29 78 -29 134q0 80 52.5 128t140.5 48q85 0 132.5 -45t52.5 -131h-102q-5 49 -26 72t-60 23q-36 0 -59.5 -23.5t-23.5 -63.5q0 -48 34 -142h156v-68h-133 q14 -49 14 -87q0 -55 -15 -104q30 -20 44 -29t37 -18.5t41 -9.5q60 0 64 96h87q-10 -182 -147 -182q-40 0 -76 19.5t-81 55.5q-48 -75 -131 -75q-50 0 -81 26.5t-31 71.5q0 51 33 80.5t87 29.5q33 0 66 -14q1 10 1 28q0 44 -22 112h-108z" glyph-name="sterling" unicode="£"/>
<glyph d="M284 250q39 0 64.5 26t25.5 68t-25.5 68t-64.5 26t-64.5 -26t-25.5 -68t25.5 -68t64.5 -26zM135 144l-51 50l59 60q-28 44 -28 90q0 47 30 91l-60 60l51 50l59 -61q42 24 89 24q46 0 88 -24l60 61l51 -50l-60 -60q30 -44 30 -91q0 -45 -29 -90l60 -60l-51 -50l-60 60 q-37 -24 -89 -24q-53 0 -89 24z" glyph-name="currency" unicode="¤"/>
<glyph d="M85 241v61h145v2l-221 384h124l153 -279h4l154 279h115l-221 -385v-1h145v-61h-145v-71h145v-61h-145v-109h-108v109h-145v61h145v71h-145z" glyph-name="yen" unicode="¥"/>
<glyph d="M88 -164v352h95v-352h-95zM88 336v352h95v-352h-95z" horiz-adv-x="271" glyph-name="brokenbar" unicode="¦"/>
<glyph d="M319 334l-62 18q-49 -12 -75.5 -42t-26.5 -67q0 -43 23.5 -66t76.5 -39l56 -17q52 12 80 41.5t28 66.5q0 43 -23.5 65.5t-76.5 39.5zM62 -69h101q4 -42 35.5 -62.5t82.5 -20.5q55 0 85.5 23.5t30.5 64.5q0 34 -22.5 52.5t-71.5 33.5l-95 28q-154 45 -154 175 q0 52 31 93.5t85 62.5q-96 45 -96 143q0 81 59 128.5t160 47.5q96 0 154.5 -40t64.5 -119h-101q-4 42 -36 62.5t-82 20.5q-56 0 -86 -23t-30 -65q0 -34 22 -52.5t71 -33.5l96 -28q153 -45 153 -175q0 -52 -31 -94t-85 -63q97 -44 97 -142q0 -81 -59 -128.5t-160 -47.5 q-96 0 -154.5 40t-64.5 119z" horiz-adv-x="574" glyph-name="section" unicode="§"/>
<glyph d="M130 600v104h103v-104h-103zM340 600v104h102v-104h-102z" horiz-adv-x="573" glyph-name="dieresis" unicode="¨"/>
<glyph d="M215 348q0 75 47.5 125.5t126.5 50.5q62 0 102.5 -32t49.5 -86h-78q-16 51 -74 51q-41 0 -67 -31.5t-26 -77.5q0 -47 26 -78.5t67 -31.5q58 0 74 52h78q-9 -54 -49.5 -86t-102.5 -32q-79 0 -126.5 50t-47.5 126zM112 348q0 -124 78 -210t198 -86q118 0 197 86t79 210 q0 123 -77.5 203.5t-198.5 80.5t-198.5 -80.5t-77.5 -203.5zM35 348q0 151 100 251.5t253 100.5q150 0 251.5 -101t101.5 -251q0 -152 -100.5 -256t-252.5 -104t-252.5 104t-100.5 256z" horiz-adv-x="776" glyph-name="copyright" unicode="©"/>
<glyph d="M259 479v30q-9 -12 -33 -15l-50 -6q-50 -7 -50 -46q0 -44 53 -44q34 0 57 21t23 60zM150 336q-54 0 -84.5 27t-30.5 71q0 89 115 105l65 8q25 3 34.5 9t9.5 21q0 24 -15 39.5t-45 15.5q-60 0 -64 -56h-85q4 61 45.5 91t103.5 30q151 0 151 -128v-225h-88v41h-3 q-32 -49 -109 -49z" horiz-adv-x="395" glyph-name="ordfeminine" unicode="ª"/>
<glyph d="M193 48l-143 204l143 204h89l-114 -204l114 -204h-89zM255 252l143 204h89l-114 -204l114 -204h-89z" horiz-adv-x="537" glyph-name="guillemotleft" unicode="«"/>
<glyph d="M57 210v88h454v-270h-93v182h-361z" glyph-name="logicalnot" unicode="¬"/>
<glyph d="M404 454h-79v-93h79q27 0 41 13t14 35q0 45 -55 45zM244 176v344h163q64 0 98.5 -29t34.5 -81q0 -35 -20 -62.5t-55 -41.5l87 -130h-87l-75 120h-65v-120h-81zM112 348q0 -124 78 -210t198 -86q118 0 197 86t79 210q0 123 -77.5 203.5t-198.5 80.5t-198.5 -80.5 t-77.5 -203.5zM35 348q0 151 100 251.5t253 100.5q150 0 251.5 -101t101.5 -251q0 -152 -100.5 -256t-252.5 -104t-252.5 104t-100.5 256z" horiz-adv-x="776" glyph-name="registered" unicode="®"/>
<glyph d="M141 611v78h287v-78h-287z" horiz-adv-x="573" glyph-name="macron" unicode="¯"/>
<glyph d="M189 629q-29 0 -48.5 -20t-19.5 -52t19.5 -52t48.5 -20q30 0 49 19.5t19 52.5q0 32 -19 52t-49 20zM189 413q-64 0 -106.5 40t-42.5 104q0 63 42.5 103t106.5 40t106.5 -40t42.5 -103q0 -64 -42.5 -104t-106.5 -40z" horiz-adv-x="378" glyph-name="degree" unicode="°"/>
<glyph d="M56 0v88h456v-88h-456zM58 322v87h180v168h92v-168h182v-87h-182v-168h-92v168h-180z" glyph-name="plusminus" unicode="±"/>
<glyph d="M248 568l102 164h120l-146 -164h-76z" horiz-adv-x="573" glyph-name="acute" unicode="´"/>
<glyph d="M168 11q12 -96 12 -162v-69h-109v708h109v-282q0 -70 26 -100t77 -30q53 0 86 43t33 115v254h108v-488h-103v71h-4q-41 -83 -147 -83q-47 0 -85 23h-3z" horiz-adv-x="582" glyph-name="mu" unicode="µ"/>
<glyph d="M256 0v249q-101 10 -158.5 68t-57.5 151q0 100 67.5 160t184.5 60h66v-688h-102zM436 0v688h102v-688h-102z" horiz-adv-x="628" glyph-name="paragraph" unicode="¶"/>
<glyph d="M72 190v124h129v-124h-129z" horiz-adv-x="273" glyph-name="periodcentered" unicode="·"/>
<glyph d="M239 -86l30 86h36v-37q44 -2 68 -26.5t24 -60.5q0 -43 -30 -69.5t-87 -26.5h-61v59h53q49 0 49 38q0 37 -49 37h-33z" horiz-adv-x="573" glyph-name="cedilla" unicode="¸"/>
<glyph d="M210 408q40 0 63.5 30t23.5 78q0 49 -23.5 78.5t-63.5 29.5q-39 0 -62.5 -30t-23.5 -78t23.5 -78t62.5 -30zM210 336q-83 0 -131.5 48.5t-48.5 131.5q0 82 49.5 131.5t130.5 49.5q84 0 133 -49t49 -132q0 -82 -50 -131t-132 -49z" horiz-adv-x="421" glyph-name="ordmasculine" unicode="º"/>
<glyph d="M50 48l114 204l-114 204h89l143 -204l-143 -204h-89zM255 48l114 204l-114 204h89l143 -204l-143 -204h-89z" horiz-adv-x="537" glyph-name="guillemotright" unicode="»"/>
<glyph d="M546 128h85v107zM75 541l-36 61l145 86h54v-274h92v-70h-279v70h98v170zM222 -12q40 81 104.5 213t139.5 286t104 213h75l-348 -712h-75zM456 61v52l188 232h75v-217h47v-67h-47v-61h-88v61h-175z" horiz-adv-x="793" glyph-name="onequarter" unicode="¼"/>
<glyph d="M75 541l-36 61l145 86h54v-274h92v-70h-279v70h98v170zM199 -12q40 81 104.5 213t139.5 286t104 213h75l-348 -712h-75zM464 0q0 72 31 110t85 64l21 10q69 32 69 59q0 43 -55 43q-58 0 -63 -59h-84q2 63 43.5 94t102.5 31q65 0 104 -28t39 -78q0 -43 -27.5 -68 t-81.5 -50l-20 -10q-60 -27 -60 -48h188v-70h-292z" horiz-adv-x="793" glyph-name="onehalf" unicode="½"/>
<glyph d="M546 128h85v107zM208 -12q29 59 104 213t139.5 286t104.5 213h74l-348 -712h-74zM34 449h83q0 -25 17 -39t46 -14q28 0 45.5 12.5t17.5 35.5q0 24 -17.5 36.5t-47.5 12.5h-24v56h24q58 0 58 44q0 43 -56 43q-26 0 -41 -13t-15 -36h-82q1 52 39 80.5t102 28.5 q62 0 99.5 -27t37.5 -70q0 -29 -15.5 -49.5t-41.5 -26.5v-3q31 -7 49.5 -29t18.5 -54q0 -49 -39.5 -75t-111.5 -26q-145 0 -146 113zM456 61v52l188 232h75v-217h47v-67h-47v-61h-88v61h-175z" horiz-adv-x="793" glyph-name="threequarters" unicode="¾"/>
<glyph d="M34 -28q0 46 18 80t44 55t52.5 40t44.5 45t18 60v34h105v-26q0 -51 -17.5 -88.5t-43 -59t-51 -39.5t-43 -42t-17.5 -54q0 -43 29.5 -71t78.5 -28q61 0 91.5 36.5t30.5 93.5h106q0 -93 -58 -156.5t-170 -63.5q-98 0 -158 49.5t-60 134.5zM204 368v120h119v-120h-119z" horiz-adv-x="510" glyph-name="questiondown" unicode="¿"/>
<glyph d="M294 768l-146 164h120l102 -164h-76zM333 576h-4l-112 -315h227zM10 0l256 688h133l256 -688h-119l-59 167h-294l-59 -167h-114z" horiz-adv-x="665" glyph-name="Agrave" unicode="À"/>
<glyph d="M293 768l102 164h120l-146 -164h-76zM333 576h-4l-112 -315h227zM10 0l256 688h133l256 -688h-119l-59 167h-294l-59 -167h-114z" horiz-adv-x="665" glyph-name="Aacute" unicode="Á"/>
<glyph d="M159 768l128 164h89l128 -164h-95l-78 106l-77 -106h-95zM333 576h-4l-112 -315h227zM10 0l256 688h133l256 -688h-119l-59 167h-294l-59 -167h-114z" horiz-adv-x="665" glyph-name="Acircumflex" unicode="Â"/>
<glyph d="M162 791q2 53 27.5 85t72.5 32q32 0 79.5 -23t63.5 -23q34 0 42 48h54q-2 -53 -27.5 -85t-72.5 -32q-32 0 -80 23t-63 23q-36 0 -42 -48h-54zM333 576h-4l-112 -315h227zM10 0l256 688h133l256 -688h-119l-59 167h-294l-59 -167h-114z" horiz-adv-x="665" glyph-name="Atilde" unicode="Ã"/>
<glyph d="M175 800v104h103v-104h-103zM385 800v104h102v-104h-102zM333 576h-4l-112 -315h227zM10 0l256 688h133l256 -688h-119l-59 167h-294l-59 -167h-114z" horiz-adv-x="665" glyph-name="Adieresis" unicode="Ä"/>
<glyph d="M331 808q21 0 36 14.5t15 35.5t-15 35.5t-36 14.5t-35.5 -14.5t-14.5 -35.5t15 -35.5t35 -14.5zM331 759q-43 0 -73 28t-30 71t30.5 71t72.5 28q43 0 73.5 -28t30.5 -71t-30.5 -71t-73.5 -28zM333 576h-4l-112 -315h227zM10 0l256 688h133l256 -688h-119l-59 167h-294 l-59 -167h-114z" horiz-adv-x="665" glyph-name="Aring" unicode="Å"/>
<glyph d="M544 567l-227 -317h231v317h-4zM8 0l497 688h526v-96h-370v-195h296v-93h-296v-208h379v-96h-492v157h-297l-112 -157h-131z" horiz-adv-x="1091" glyph-name="AE" unicode="Æ"/>
<glyph d="M332 -86l26 75q-142 7 -228 105.5t-86 249.5q0 155 93.5 255.5t244.5 100.5q122 0 199.5 -63t98.5 -171h-115q-37 134 -183 134q-100 0 -160.5 -71t-60.5 -185q0 -112 60.5 -184t157.5 -72q149 0 186 134h115q-20 -103 -93.5 -165.5t-188.5 -67.5v-26q44 -2 68 -26.5 t24 -60.5q0 -43 -30 -69.5t-87 -26.5h-61v59h53q49 0 49 38q0 37 -49 37h-33z" horiz-adv-x="722" glyph-name="Ccedilla" unicode="Ç"/>
<glyph d="M289 768l-146 164h120l102 -164h-76zM84 0v688h482v-96h-369v-195h296v-93h-296v-208h378v-96h-491z" horiz-adv-x="626" glyph-name="Egrave" unicode="È"/>
<glyph d="M288 768l102 164h120l-146 -164h-76zM84 0v688h482v-96h-369v-195h296v-93h-296v-208h378v-96h-491z" horiz-adv-x="626" glyph-name="Eacute" unicode="É"/>
<glyph d="M154 768l128 164h89l128 -164h-95l-78 106l-77 -106h-95zM84 0v688h482v-96h-369v-195h296v-93h-296v-208h378v-96h-491z" horiz-adv-x="626" glyph-name="Ecircumflex" unicode="Ê"/>
<glyph d="M170 800v104h103v-104h-103zM380 800v104h102v-104h-102zM84 0v688h482v-96h-369v-195h296v-93h-296v-208h378v-96h-491z" horiz-adv-x="626" glyph-name="Edieresis" unicode="Ë"/>
<glyph d="M104 768l-146 164h120l102 -164h-76zM84 0v688h113v-688h-113z" horiz-adv-x="282" glyph-name="Igrave" unicode="Ì"/>
<glyph d="M103 768l102 164h120l-146 -164h-76zM84 0v688h113v-688h-113z" horiz-adv-x="282" glyph-name="Iacute" unicode="Í"/>
<glyph d="M-31 768l128 164h89l128 -164h-95l-78 106l-77 -106h-95zM84 0v688h113v-688h-113z" horiz-adv-x="282" glyph-name="Icircumflex" unicode="Î"/>
<glyph d="M-15 800v104h103v-104h-103zM195 800v104h102v-104h-102zM84 0v688h113v-688h-113z" horiz-adv-x="282" glyph-name="Idieresis" unicode="Ï"/>
<glyph d="M308 592h-111v-207h155v-79h-155v-210h111q129 0 189.5 69.5t60.5 178.5t-60.5 178.5t-189.5 69.5zM4 306v79h80v303h229q174 0 268.5 -94.5t94.5 -249.5t-94.5 -249.5t-268.5 -94.5h-229v306h-80z" horiz-adv-x="720" glyph-name="Eth" unicode="Ð"/>
<glyph d="M205 791q2 53 27.5 85t72.5 32q32 0 79.5 -23t63.5 -23q34 0 42 48h54q-2 -53 -27.5 -85t-72.5 -32q-32 0 -80 23t-63 23q-36 0 -42 -48h-54zM84 0v688h105l362 -496h4l-4 496h114v-688h-104l-364 494h-4l4 -494h-113z" horiz-adv-x="749" glyph-name="Ntilde" unicode="Ñ"/>
<glyph d="M350 768l-146 164h120l102 -164h-76zM161 344q0 -112 62.5 -184t163.5 -72q102 0 164.5 72t62.5 184t-62.5 184t-164.5 72q-101 0 -163.5 -72t-62.5 -184zM44 344q0 156 94.5 256t248.5 100q151 0 247.5 -100.5t96.5 -255.5t-96.5 -255.5t-247.5 -100.5 q-154 0 -248.5 100t-94.5 256z" horiz-adv-x="775" glyph-name="Ograve" unicode="Ò"/>
<glyph d="M349 768l102 164h120l-146 -164h-76zM161 344q0 -112 62.5 -184t163.5 -72q102 0 164.5 72t62.5 184t-62.5 184t-164.5 72q-101 0 -163.5 -72t-62.5 -184zM44 344q0 156 94.5 256t248.5 100q151 0 247.5 -100.5t96.5 -255.5t-96.5 -255.5t-247.5 -100.5 q-154 0 -248.5 100t-94.5 256z" horiz-adv-x="775" glyph-name="Oacute" unicode="Ó"/>
<glyph d="M215 768l128 164h89l128 -164h-95l-78 106l-77 -106h-95zM161 344q0 -112 62.5 -184t163.5 -72q102 0 164.5 72t62.5 184t-62.5 184t-164.5 72q-101 0 -163.5 -72t-62.5 -184zM44 344q0 156 94.5 256t248.5 100q151 0 247.5 -100.5t96.5 -255.5t-96.5 -255.5 t-247.5 -100.5q-154 0 -248.5 100t-94.5 256z" horiz-adv-x="775" glyph-name="Ocircumflex" unicode="Ô"/>
<glyph d="M218 791q2 53 27.5 85t72.5 32q32 0 79.5 -23t63.5 -23q34 0 42 48h54q-2 -53 -27.5 -85t-72.5 -32q-32 0 -80 23t-63 23q-36 0 -42 -48h-54zM161 344q0 -112 62.5 -184t163.5 -72q102 0 164.5 72t62.5 184t-62.5 184t-164.5 72q-101 0 -163.5 -72t-62.5 -184zM44 344 q0 156 94.5 256t248.5 100q151 0 247.5 -100.5t96.5 -255.5t-96.5 -255.5t-247.5 -100.5q-154 0 -248.5 100t-94.5 256z" horiz-adv-x="775" glyph-name="Otilde" unicode="Õ"/>
<glyph d="M231 800v104h103v-104h-103zM441 800v104h102v-104h-102zM161 344q0 -112 62.5 -184t163.5 -72q102 0 164.5 72t62.5 184t-62.5 184t-164.5 72q-101 0 -163.5 -72t-62.5 -184zM44 344q0 156 94.5 256t248.5 100q151 0 247.5 -100.5t96.5 -255.5t-96.5 -255.5 t-247.5 -100.5q-154 0 -248.5 100t-94.5 256z" horiz-adv-x="775" glyph-name="Odieresis" unicode="Ö"/>
<glyph d="M71 406l63 62l150 -152l150 152l63 -62l-151 -152l152 -153l-63 -62l-151 152l-151 -152l-63 62l152 153z" glyph-name="multiply" unicode="×"/>
<glyph d="M161 344q0 -101 49 -168l309 381q-57 43 -132 43q-101 0 -163.5 -72t-62.5 -184zM614 344q0 98 -50 167l-309 -381q56 -42 132 -42q102 0 164.5 72t62.5 184zM57 -12l82 101q-95 98 -95 255q0 155 95.5 255.5t247.5 100.5q113 0 199 -61l49 61h83l-83 -102 q96 -102 96 -254q0 -154 -97 -255t-247 -101q-115 0 -200 59l-48 -59h-82z" horiz-adv-x="775" glyph-name="Oslash" unicode="Ø"/>
<glyph d="M319 768l-146 164h120l102 -164h-76zM70 274v414h113v-413q0 -90 43.5 -138.5t129.5 -48.5t129.5 48t43.5 139v413h113v-414q0 -286 -286 -286q-134 0 -210 68.5t-76 217.5z" horiz-adv-x="713" glyph-name="Ugrave" unicode="Ù"/>
<glyph d="M318 768l102 164h120l-146 -164h-76zM70 274v414h113v-413q0 -90 43.5 -138.5t129.5 -48.5t129.5 48t43.5 139v413h113v-414q0 -286 -286 -286q-134 0 -210 68.5t-76 217.5z" horiz-adv-x="713" glyph-name="Uacute" unicode="Ú"/>
<glyph d="M184 768l128 164h89l128 -164h-95l-78 106l-77 -106h-95zM70 274v414h113v-413q0 -90 43.5 -138.5t129.5 -48.5t129.5 48t43.5 139v413h113v-414q0 -286 -286 -286q-134 0 -210 68.5t-76 217.5z" horiz-adv-x="713" glyph-name="Ucircumflex" unicode="Û"/>
<glyph d="M200 800v104h103v-104h-103zM410 800v104h102v-104h-102zM70 274v414h113v-413q0 -90 43.5 -138.5t129.5 -48.5t129.5 48t43.5 139v413h113v-414q0 -286 -286 -286q-134 0 -210 68.5t-76 217.5z" horiz-adv-x="713" glyph-name="Udieresis" unicode="Ü"/>
<glyph d="M280 768l102 164h120l-146 -164h-76zM260 0v266l-249 422h128l178 -310h4l185 310h119l-252 -417v-271h-113z" horiz-adv-x="637" glyph-name="Yacute" unicode="Ý"/>
<glyph d="M358 485h-161v-268h161q68 0 104 38.5t36 98.5q0 59 -36 95t-104 36zM84 0v688h113v-109h166q118 0 183.5 -61.5t65.5 -162.5q0 -102 -66 -167t-183 -65h-166v-123h-113z" horiz-adv-x="655" glyph-name="Thorn" unicode="Þ"/>
<glyph d="M73 0v506q0 118 62.5 178t167.5 60q98 0 147.5 -45.5t49.5 -110.5q0 -34 -15.5 -63t-34 -44.5t-34 -35t-15.5 -38.5t16.5 -36.5t40.5 -34t48 -36t40.5 -51.5t16.5 -73q0 -84 -55.5 -130t-142.5 -46h-95v86h88q45 0 71 21t26 59q0 28 -16 49.5t-38.5 36.5t-45.5 31 t-39 44.5t-16 66.5q0 35 15.5 63t34.5 43.5t34.5 37.5t15.5 47q0 31 -26 53t-75 22q-55 0 -86.5 -36.5t-31.5 -114.5v-509h-108z" horiz-adv-x="591" glyph-name="germandbls" unicode="ß"/>
<glyph d="M238 568l-146 164h120l102 -164h-76zM366 200v45q-14 -17 -50 -23l-84 -14q-79 -12 -79 -72q0 -31 21.5 -49t61.5 -18q55 0 92.5 34t37.5 97zM45 125q0 62 39 98.5t124 50.5l95 16q37 6 50 12.5t13 20.5q0 96 -96 96q-47 0 -73.5 -23t-29.5 -63h-103q5 76 60 121.5 t146 45.5q101 0 152.5 -46t51.5 -133v-321h-103v61h-5q-45 -73 -156 -73q-79 0 -122 37t-43 100z" horiz-adv-x="541" glyph-name="agrave" unicode="à"/>
<glyph d="M221 568l102 164h120l-146 -164h-76zM366 200v45q-14 -17 -50 -23l-84 -14q-79 -12 -79 -72q0 -31 21.5 -49t61.5 -18q55 0 92.5 34t37.5 97zM45 125q0 62 39 98.5t124 50.5l95 16q37 6 50 12.5t13 20.5q0 96 -96 96q-47 0 -73.5 -23t-29.5 -63h-103q5 76 60 121.5 t146 45.5q101 0 152.5 -46t51.5 -133v-321h-103v61h-5q-45 -73 -156 -73q-79 0 -122 37t-43 100z" horiz-adv-x="541" glyph-name="aacute" unicode="á"/>
<glyph d="M95 568l128 164h89l128 -164h-95l-78 106l-77 -106h-95zM366 200v45q-14 -17 -50 -23l-84 -14q-79 -12 -79 -72q0 -31 21.5 -49t61.5 -18q55 0 92.5 34t37.5 97zM45 125q0 62 39 98.5t124 50.5l95 16q37 6 50 12.5t13 20.5q0 96 -96 96q-47 0 -73.5 -23t-29.5 -63h-103 q5 76 60 121.5t146 45.5q101 0 152.5 -46t51.5 -133v-321h-103v61h-5q-45 -73 -156 -73q-79 0 -122 37t-43 100z" horiz-adv-x="541" glyph-name="acircumflex" unicode="â"/>
<glyph d="M98 591q2 53 27.5 85t72.5 32q32 0 79.5 -23t63.5 -23q34 0 42 48h54q-2 -53 -27.5 -85t-72.5 -32q-32 0 -80 23t-63 23q-36 0 -42 -48h-54zM366 200v45q-14 -17 -50 -23l-84 -14q-79 -12 -79 -72q0 -31 21.5 -49t61.5 -18q55 0 92.5 34t37.5 97zM45 125q0 62 39 98.5 t124 50.5l95 16q37 6 50 12.5t13 20.5q0 96 -96 96q-47 0 -73.5 -23t-29.5 -63h-103q5 76 60 121.5t146 45.5q101 0 152.5 -46t51.5 -133v-321h-103v61h-5q-45 -73 -156 -73q-79 0 -122 37t-43 100z" horiz-adv-x="541" glyph-name="atilde" unicode="ã"/>
<glyph d="M111 600v104h103v-104h-103zM321 600v104h102v-104h-102zM366 200v45q-14 -17 -50 -23l-84 -14q-79 -12 -79 -72q0 -31 21.5 -49t61.5 -18q55 0 92.5 34t37.5 97zM45 125q0 62 39 98.5t124 50.5l95 16q37 6 50 12.5t13 20.5q0 96 -96 96q-47 0 -73.5 -23t-29.5 -63h-103 q5 76 60 121.5t146 45.5q101 0 152.5 -46t51.5 -133v-321h-103v61h-5q-45 -73 -156 -73q-79 0 -122 37t-43 100z" horiz-adv-x="541" glyph-name="adieresis" unicode="ä"/>
<glyph d="M267 608q21 0 36 14.5t15 35.5t-15 35.5t-36 14.5t-35.5 -14.5t-14.5 -35.5t15 -35.5t35 -14.5zM267 559q-43 0 -73 28t-30 71t30.5 71t72.5 28q43 0 73.5 -28t30.5 -71t-30.5 -71t-73.5 -28zM366 200v45q-14 -17 -50 -23l-84 -14q-79 -12 -79 -72q0 -31 21.5 -49 t61.5 -18q55 0 92.5 34t37.5 97zM45 125q0 62 39 98.5t124 50.5l95 16q37 6 50 12.5t13 20.5q0 96 -96 96q-47 0 -73.5 -23t-29.5 -63h-103q5 76 60 121.5t146 45.5q101 0 152.5 -46t51.5 -133v-321h-103v61h-5q-45 -73 -156 -73q-79 0 -122 37t-43 100z" horiz-adv-x="541" glyph-name="aring" unicode="å"/>
<glyph d="M598 416q-48 0 -79 -31t-42 -87h231q-4 56 -32.5 87t-77.5 31zM366 200v45q-14 -17 -50 -23l-84 -14q-79 -13 -79 -72q0 -67 83 -67q56 0 93 33t37 98zM64 333q6 84 63.5 125.5t142.5 41.5q117 0 165 -65q60 65 163 65q100 0 161 -63.5t61 -174.5v-36h-347 q4 -73 38.5 -113t90.5 -40q87 0 107 75h106q-11 -67 -70 -113.5t-144 -46.5q-134 0 -192 98q-58 -98 -193 -98q-82 0 -126.5 37t-44.5 100q0 123 163 149l95 16q39 6 51 13.5t12 25.5q0 39 -24 64.5t-72 25.5q-44 0 -72 -22t-31 -64h-103z" horiz-adv-x="856" glyph-name="ae" unicode="æ"/>
<glyph d="M234 -86l26 75q-104 6 -163 73.5t-59 181.5q0 117 68 186.5t175 69.5q97 0 155 -50t67 -129h-107q-7 41 -36 66.5t-79 25.5q-57 0 -94 -47t-37 -122t37 -122t94 -47q98 0 115 92h107q-9 -75 -61 -124t-142 -54v-26q44 -2 68 -26.5t24 -60.5q0 -43 -30 -69.5t-87 -26.5 h-61v59h53q49 0 49 38q0 37 -49 37h-33z" horiz-adv-x="534" glyph-name="ccedilla" unicode="ç"/>
<glyph d="M243 568l-146 164h120l102 -164h-76zM280 416q-48 0 -81.5 -31t-44.5 -86h244q-13 117 -118 117zM38 243q0 115 68 186t174 71q104 0 166 -63t62 -175v-36h-359q5 -71 41 -112t94 -41q48 0 76.5 21.5t36.5 53.5h106q-11 -68 -71 -114t-149 -46q-117 0 -181 67.5 t-64 187.5z" horiz-adv-x="544" glyph-name="egrave" unicode="è"/>
<glyph d="M242 568l102 164h120l-146 -164h-76zM280 416q-48 0 -81.5 -31t-44.5 -86h244q-13 117 -118 117zM38 243q0 115 68 186t174 71q104 0 166 -63t62 -175v-36h-359q5 -71 41 -112t94 -41q48 0 76.5 21.5t36.5 53.5h106q-11 -68 -71 -114t-149 -46q-117 0 -181 67.5 t-64 187.5z" horiz-adv-x="544" glyph-name="eacute" unicode="é"/>
<glyph d="M108 568l128 164h89l128 -164h-95l-78 106l-77 -106h-95zM280 416q-48 0 -81.5 -31t-44.5 -86h244q-13 117 -118 117zM38 243q0 115 68 186t174 71q104 0 166 -63t62 -175v-36h-359q5 -71 41 -112t94 -41q48 0 76.5 21.5t36.5 53.5h106q-11 -68 -71 -114t-149 -46 q-117 0 -181 67.5t-64 187.5z" horiz-adv-x="544" glyph-name="ecircumflex" unicode="ê"/>
<glyph d="M124 600v104h103v-104h-103zM334 600v104h102v-104h-102zM280 416q-48 0 -81.5 -31t-44.5 -86h244q-13 117 -118 117zM38 243q0 115 68 186t174 71q104 0 166 -63t62 -175v-36h-359q5 -71 41 -112t94 -41q48 0 76.5 21.5t36.5 53.5h106q-11 -68 -71 -114t-149 -46 q-117 0 -181 67.5t-64 187.5z" horiz-adv-x="544" glyph-name="edieresis" unicode="ë"/>
<glyph d="M90 568l-146 164h120l102 -164h-76zM73 0v488h108v-488h-108z" horiz-adv-x="255" glyph-name="igrave" unicode="ì"/>
<glyph d="M89 568l102 164h120l-146 -164h-76zM73 0v488h108v-488h-108z" horiz-adv-x="255" glyph-name="iacute" unicode="í"/>
<glyph d="M-45 568l128 164h89l128 -164h-95l-78 106l-77 -106h-95zM73 0v488h108v-488h-108z" horiz-adv-x="255" glyph-name="icircumflex" unicode="î"/>
<glyph d="M-29 600v104h103v-104h-103zM181 600v104h102v-104h-102zM73 0v488h108v-488h-108z" horiz-adv-x="255" glyph-name="idieresis" unicode="ï"/>
<glyph d="M155 228q0 -67 39 -110t101 -43t101 42.5t39 110.5q0 69 -38.5 111t-101.5 42q-62 0 -101 -43t-39 -110zM209 512l-36 51l84 58q-50 25 -119 46l26 77q104 -30 173 -68l97 67l35 -52l-75 -52q76 -57 115 -144t39 -225v-2q0 -135 -69 -207.5t-184 -72.5t-183 66.5 t-68 173.5q0 105 69 172.5t170 67.5q94 0 141 -55h5q-32 111 -113 172z" horiz-adv-x="593" glyph-name="eth" unicode="ð"/>
<glyph d="M124 591q2 53 27.5 85t72.5 32q32 0 79.5 -23t63.5 -23q34 0 42 48h54q-2 -53 -27.5 -85t-72.5 -32q-32 0 -80 23t-63 23q-36 0 -42 -48h-54zM73 0v488h104v-71h4q42 83 151 83q81 0 132 -48.5t51 -155.5v-296h-108v282q0 130 -104 130q-53 0 -87.5 -42.5t-34.5 -114.5 v-255h-108z" horiz-adv-x="581" glyph-name="ntilde" unicode="ñ"/>
<glyph d="M251 568l-146 164h120l102 -164h-76zM151 244q0 -76 37.5 -122.5t99.5 -46.5t99.5 46.5t37.5 122.5q0 79 -37.5 124t-99.5 45t-99.5 -46.5t-37.5 -122.5zM39 244q0 117 69.5 186.5t179.5 69.5q114 0 181.5 -68.5t67.5 -187.5q0 -117 -69.5 -186.5t-179.5 -69.5 q-114 0 -181.5 68.5t-67.5 187.5z" horiz-adv-x="577" glyph-name="ograve" unicode="ò"/>
<glyph d="M250 568l102 164h120l-146 -164h-76zM151 244q0 -76 37.5 -122.5t99.5 -46.5t99.5 46.5t37.5 122.5q0 79 -37.5 124t-99.5 45t-99.5 -46.5t-37.5 -122.5zM39 244q0 117 69.5 186.5t179.5 69.5q114 0 181.5 -68.5t67.5 -187.5q0 -117 -69.5 -186.5t-179.5 -69.5 q-114 0 -181.5 68.5t-67.5 187.5z" horiz-adv-x="577" glyph-name="oacute" unicode="ó"/>
<glyph d="M116 568l128 164h89l128 -164h-95l-78 106l-77 -106h-95zM151 244q0 -76 37.5 -122.5t99.5 -46.5t99.5 46.5t37.5 122.5q0 79 -37.5 124t-99.5 45t-99.5 -46.5t-37.5 -122.5zM39 244q0 117 69.5 186.5t179.5 69.5q114 0 181.5 -68.5t67.5 -187.5q0 -117 -69.5 -186.5 t-179.5 -69.5q-114 0 -181.5 68.5t-67.5 187.5z" horiz-adv-x="577" glyph-name="ocircumflex" unicode="ô"/>
<glyph d="M119 591q2 53 27.5 85t72.5 32q32 0 79.5 -23t63.5 -23q34 0 42 48h54q-2 -53 -27.5 -85t-72.5 -32q-32 0 -80 23t-63 23q-36 0 -42 -48h-54zM151 244q0 -76 37.5 -122.5t99.5 -46.5t99.5 46.5t37.5 122.5q0 79 -37.5 124t-99.5 45t-99.5 -46.5t-37.5 -122.5zM39 244 q0 117 69.5 186.5t179.5 69.5q114 0 181.5 -68.5t67.5 -187.5q0 -117 -69.5 -186.5t-179.5 -69.5q-114 0 -181.5 68.5t-67.5 187.5z" horiz-adv-x="577" glyph-name="otilde" unicode="õ"/>
<glyph d="M132 600v104h103v-104h-103zM342 600v104h102v-104h-102zM151 244q0 -76 37.5 -122.5t99.5 -46.5t99.5 46.5t37.5 122.5q0 79 -37.5 124t-99.5 45t-99.5 -46.5t-37.5 -122.5zM39 244q0 117 69.5 186.5t179.5 69.5q114 0 181.5 -68.5t67.5 -187.5q0 -117 -69.5 -186.5 t-179.5 -69.5q-114 0 -181.5 68.5t-67.5 187.5z" horiz-adv-x="577" glyph-name="odieresis" unicode="ö"/>
<glyph d="M231 19v108h106v-108h-106zM56 210v88h456v-88h-456zM231 380v108h106v-108h-106z" glyph-name="divide" unicode="÷"/>
<glyph d="M424 244q0 55 -21 97l-196 -239q33 -27 80 -27q62 0 99.5 46.5t37.5 122.5zM150 244q0 -58 22 -100l197 240q-34 29 -82 29q-62 0 -99.5 -46.5t-37.5 -122.5zM45 -12l58 71q-65 70 -65 185q0 116 69.5 186t179.5 70q84 0 145 -39l32 39h70l-61 -74q64 -69 64 -182 q0 -116 -69.5 -186t-180.5 -70q-83 0 -143 37l-30 -37h-69z" horiz-adv-x="575" glyph-name="oslash" unicode="ø"/>
<glyph d="M253 568l-146 164h120l102 -164h-76zM65 192v296h108v-282q0 -130 104 -130q53 0 86 43t33 117v252h108v-488h-103v71h-4q-42 -83 -148 -83q-81 0 -132.5 48.5t-51.5 155.5z" horiz-adv-x="577" glyph-name="ugrave" unicode="ù"/>
<glyph d="M252 568l102 164h120l-146 -164h-76zM65 192v296h108v-282q0 -130 104 -130q53 0 86 43t33 117v252h108v-488h-103v71h-4q-42 -83 -148 -83q-81 0 -132.5 48.5t-51.5 155.5z" horiz-adv-x="577" glyph-name="uacute" unicode="ú"/>
<glyph d="M118 568l128 164h89l128 -164h-95l-78 106l-77 -106h-95zM65 192v296h108v-282q0 -130 104 -130q53 0 86 43t33 117v252h108v-488h-103v71h-4q-42 -83 -148 -83q-81 0 -132.5 48.5t-51.5 155.5z" horiz-adv-x="577" glyph-name="ucircumflex" unicode="û"/>
<glyph d="M134 600v104h103v-104h-103zM344 600v104h102v-104h-102zM65 192v296h108v-282q0 -130 104 -130q53 0 86 43t33 117v252h108v-488h-103v71h-4q-42 -83 -148 -83q-81 0 -132.5 48.5t-51.5 155.5z" horiz-adv-x="577" glyph-name="udieresis" unicode="ü"/>
<glyph d="M207 568l102 164h120l-146 -164h-76zM186 0l-182 488h118l127 -376h4l127 376h109l-201 -556q-57 -160 -187 -160h-54v89h32q84 0 118 95l15 44h-26z" horiz-adv-x="493" glyph-name="yacute" unicode="ý"/>
<glyph d="M448 248q0 78 -37 121.5t-96 43.5q-57 0 -94.5 -43t-39.5 -118v-8q0 -78 37.5 -123.5t96.5 -45.5t96 47t37 126zM561 248q0 -118 -64.5 -189t-161.5 -71q-111 0 -154 85h-4q4 -65 4 -164v-129h-108v952h108v-153q0 -100 -4 -164h4q43 85 162 85q95 0 156.5 -67t61.5 -185 z" horiz-adv-x="600" glyph-name="thorn" unicode="þ"/>
<glyph d="M89 600v104h103v-104h-103zM299 600v104h102v-104h-102zM186 0l-182 488h118l127 -376h4l127 376h109l-201 -556q-57 -160 -187 -160h-54v89h32q84 0 118 95l15 44h-26z" horiz-adv-x="493" glyph-name="ydieresis" unicode="ÿ"/>
<glyph d="M73 0v488h108v-488h-108z" horiz-adv-x="255" glyph-name="dotlessi" unicode="ı"/>
<glyph d="M26 183l-46 63l104 74v368h113v-288l127 91l46 -62l-173 -124v-208h333v-97h-446v224z" horiz-adv-x="561" glyph-name="Lslash" unicode="Ł"/>
<glyph d="M-22 250l95 87v395h108v-296l56 52l43 -52l-99 -91v-345h-108v246l-52 -48z" horiz-adv-x="255" glyph-name="lslash" unicode="ł"/>
<glyph d="M161 344q0 -109 60.5 -178.5t189.5 -69.5h99v496h-99q-129 0 -189.5 -69.5t-60.5 -178.5zM407 0q-175 0 -269 94.5t-94 249.5t94 249.5t269 94.5h587v-96h-371v-195h298v-93h-298v-208h380v-96h-596z" horiz-adv-x="1054" glyph-name="OE" unicode="Œ"/>
<glyph d="M662 416q-48 0 -81.5 -31.5t-44.5 -86.5h243q-12 118 -117 118zM150 244q0 -76 37.5 -122.5t99.5 -46.5t99.5 46t37.5 123q0 78 -37 123.5t-100 45.5q-62 0 -99.5 -46.5t-37.5 -122.5zM38 244q0 116 69 186t180 70q129 0 191 -92q65 92 184 92q104 0 165.5 -63t61.5 -175 v-36h-358q5 -72 40.5 -112.5t94.5 -40.5q47 0 75.5 21.5t36.5 53.5h107q-11 -68 -71 -114t-149 -46q-128 0 -190 90q-65 -90 -188 -90q-114 0 -181.5 69.5t-67.5 186.5z" horiz-adv-x="925" glyph-name="oe" unicode="œ"/>
<glyph d="M282 768l-128 164h95l77 -106l78 106h95l-128 -164h-89zM53 196h112q0 -54 43.5 -87t116.5 -33q77 0 120.5 30.5t43.5 85.5q0 34 -23.5 56t-61 32t-82.5 18t-90.5 19.5t-83 30t-61 56t-23.5 92.5q0 90 71.5 147t190.5 57q117 0 187.5 -53t70.5 -144h-111q0 51 -41 80 t-106 29q-66 0 -107.5 -27.5t-41.5 -77.5q0 -34 23.5 -55.5t61.5 -31.5t83.5 -17.5t91 -19.5t83.5 -31t61.5 -57t23.5 -94q0 -97 -74 -155t-206 -58q-129 0 -200.5 56t-71.5 152z" horiz-adv-x="658" glyph-name="Scaron" unicode="Š"/>
<glyph d="M209 568l-128 164h95l77 -106l78 106h95l-128 -164h-89zM37 140h103q0 -38 32 -57t76 -19q112 0 112 71q0 26 -18 39.5t-56 19.5l-90 16q-147 24 -147 134q0 73 57.5 114.5t146.5 41.5q90 0 146 -37.5t56 -110.5h-101q0 35 -28 53.5t-73 18.5q-44 0 -72 -18t-28 -49 q0 -25 18.5 -38.5t62.5 -21.5l90 -15q67 -11 105.5 -41t38.5 -93q0 -78 -59.5 -119t-160.5 -41q-95 0 -153 39t-58 113z" horiz-adv-x="509" glyph-name="scaron" unicode="š"/>
<glyph d="M162 800v104h103v-104h-103zM372 800v104h102v-104h-102zM260 0v266l-249 422h128l178 -310h4l185 310h119l-252 -417v-271h-113z" horiz-adv-x="637" glyph-name="Ydieresis" unicode="Ÿ"/>
<glyph d="M255 768l-128 164h95l77 -106l78 106h95l-128 -164h-89zM52 594v94h511v-69l-383 -525h380v-94h-525v69l383 525h-366z" horiz-adv-x="598" glyph-name="Zcaron" unicode="Ž"/>
<glyph d="M185 568l-128 164h95l77 -106l78 106h95l-128 -164h-89zM32 403v85h393v-67l-252 -336h256v-85h-394v61l258 342h-261z" horiz-adv-x="461" glyph-name="zcaron" unicode="ž"/>
<glyph d="M83 285v72h126l18 171q18 172 174 172q142 0 142 -138q0 -3 -0.5 -9t-0.5 -9l-3 -42h-95l3 38v12q0 65 -49 65q-54 0 -63 -89l-18 -171h148v-72h-156l-31 -305q-18 -172 -174 -172q-142 0 -142 138q0 3 0.5 9t0.5 9l3 42h95l-3 -38v-12q0 -65 49 -65q54 0 63 89l31 305 h-118z" glyph-name="florin" unicode="ƒ"/>
<glyph d="M114 568l128 164h89l128 -164h-95l-78 106l-77 -106h-95z" horiz-adv-x="573" glyph-name="circumflex" unicode="ˆ"/>
<glyph d="M242 568l-128 164h95l77 -106l78 106h95l-128 -164h-89z" horiz-adv-x="573" glyph-name="caron" unicode="ˇ"/>
<glyph d="M286 577q-57 0 -99.5 35t-49.5 111h63q13 -81 86 -81q74 0 87 81h63q-7 -76 -49.5 -111t-100.5 -35z" horiz-adv-x="573" glyph-name="breve" unicode="˘"/>
<glyph d="M235 600v104h103v-104h-103z" horiz-adv-x="573" glyph-name="dotaccent" unicode="˙"/>
<glyph d="M286 608q21 0 36 14.5t15 35.5t-15 35.5t-36 14.5t-35.5 -14.5t-14.5 -35.5t15 -35.5t35 -14.5zM286 559q-43 0 -73 28t-30 71t30.5 71t72.5 28q43 0 73.5 -28t30.5 -71t-30.5 -71t-73.5 -28z" horiz-adv-x="573" glyph-name="ring" unicode="˚"/>
<glyph d="M204 -128q0 61 81 128h56q-60 -63 -60 -108q0 -46 53 -46h29v-66h-40q-58 0 -88.5 24.5t-30.5 67.5z" horiz-adv-x="573" glyph-name="ogonek" unicode="˛"/>
<glyph d="M117 591q2 53 27.5 85t72.5 32q32 0 79.5 -23t63.5 -23q34 0 42 48h54q-2 -53 -27.5 -85t-72.5 -32q-32 0 -80 23t-63 23q-36 0 -42 -48h-54z" horiz-adv-x="573" glyph-name="tilde" unicode="˜"/>
<glyph d="M152 568l102 164h120l-146 -164h-76zM342 568l102 164h119l-146 -164h-75z" horiz-adv-x="573" glyph-name="hungarumlaut" unicode="˝"/>
<glyph d="M79 0v488h441v-488h-109v400h-223v-400h-109z" horiz-adv-x="599" glyph-name="pi" unicode="π"/>
<glyph d="M56 205v94h444v-94h-444z" horiz-adv-x="556" glyph-name="endash" unicode="–"/>
<glyph d="M56 205v94h728v-94h-728z" horiz-adv-x="840" glyph-name="emdash" unicode="—"/>
<glyph d="M69 421v110l43 157h54l-30 -149h50v-118h-117z" horiz-adv-x="255" glyph-name="quoteleft" unicode="‘"/>
<glyph d="M89 421l31 149h-51v118h117v-110l-43 -157h-54z" horiz-adv-x="255" glyph-name="quoteright" unicode="’"/>
<glyph d="M120 0h-51v118h117v-110l-43 -157h-54z" horiz-adv-x="255" glyph-name="quotesinglbase" unicode="‚"/>
<glyph d="M262 421v110l43 157h54l-30 -149h50v-118h-117zM69 421v110l43 157h54l-30 -149h50v-118h-117z" horiz-adv-x="448" glyph-name="quotedblleft" unicode="“"/>
<glyph d="M282 421l31 149h-51v118h117v-110l-43 -157h-54zM89 421l31 149h-51v118h117v-110l-43 -157h-54z" horiz-adv-x="448" glyph-name="quotedblright" unicode="”"/>
<glyph d="M313 0h-51v118h117v-110l-43 -157h-54zM120 0h-51v118h117v-110l-43 -157h-54z" horiz-adv-x="448" glyph-name="quotedblbase" unicode="„"/>
<glyph d="M44 438v82h136v168h95v-168h136v-82h-136v-438h-95v438h-136z" horiz-adv-x="455" glyph-name="dagger" unicode="†"/>
<glyph d="M44 443v83h136v162h95v-162h136v-83h-136v-202h136v-83h-136v-158h-95v158h-136v83h136v202h-136z" horiz-adv-x="455" glyph-name="daggerdbl" unicode="‡"/>
<glyph d="M244 80q-73 0 -122.5 49.5t-49.5 122.5t49.5 122.5t122.5 49.5t122.5 -49.5t49.5 -122.5t-49.5 -122.5t-122.5 -49.5z" horiz-adv-x="488" glyph-name="bullet" unicode="•"/>
<glyph d="M72 0v128h129v-128h-129zM339 0v128h129v-128h-129zM606 0v128h129v-128h-129z" horiz-adv-x="807" glyph-name="ellipsis" unicode="…"/>
<glyph d="M973 60q68 0 68 112t-68 112q-67 0 -67 -112t67 -112zM973 -8q-76 0 -115 50t-39 130t39 130t115 50q77 0 116 -50t39 -130t-39 -130t-116 -50zM614 60q67 0 67 112t-67 112q-68 0 -68 -112t68 -112zM614 -8q-76 0 -115.5 50t-39.5 130t39.5 130t115.5 50q77 0 115.5 -50 t38.5 -130t-38.5 -130t-115.5 -50zM186 -12q29 59 104 213t139.5 286t104.5 213h74l-348 -712h-74zM180 404q67 0 67 112t-67 112q-68 0 -68 -112t68 -112zM180 336q-76 0 -115.5 50t-39.5 130t39.5 130t115.5 50t115 -50t39 -130t-39 -130t-115 -50z" horiz-adv-x="1153" glyph-name="perthousand" unicode="‰"/>
<glyph d="M194 48l-144 204l144 204h89l-114 -204l114 -204h-89z" horiz-adv-x="333" glyph-name="guilsinglleft" unicode="‹"/>
<glyph d="M50 48l114 204l-114 204h89l144 -204l-144 -204h-89z" horiz-adv-x="333" glyph-name="guilsinglright" unicode="›"/>
<glyph d="M-174 -12l348 712h75l-348 -712h-75z" horiz-adv-x="75" glyph-name="fraction" unicode="⁄"/>
<glyph d="M12 390l18 61h53q20 115 82.5 182t167.5 67q184 0 220 -187h-103q-15 50 -41.5 73.5t-72.5 23.5q-112 0 -140 -159h193l-18 -61h-182q-1 -15 -1 -46q0 -25 1 -37h178l-18 -62h-154q25 -167 141 -167q43 0 68 19.5t40 62.5h104q-41 -172 -215 -172q-107 0 -170 69.5 t-81 187.5h-89l18 62h65q-1 12 -1 37q0 31 1 46h-64z" glyph-name="Euro" unicode="€"/>
<glyph d="M4 619v69h314v-69h-115v-275h-82v275h-117zM363 344v344h114l91 -235h4l91 235h115v-344h-82l4 241h-4l-93 -241h-65l-93 241h-4l4 -241h-82z" horiz-adv-x="816" glyph-name="trademark" unicode="™"/>
<glyph d="M404 0v222q56 16 97.5 67t41.5 127q0 88 -54 142t-141 54t-141 -54t-54 -142q0 -76 41.5 -127t97.5 -67v-222h-236v86h141v85q-70 33 -112.5 97t-42.5 149q0 121 85 202t221 81t221 -81t85 -202q0 -85 -42.5 -149t-112.5 -97v-85h141v-86h-236z" horiz-adv-x="696" glyph-name="Omega" unicode="Ω"/>
<glyph d="M244 76q57 0 100 45.5t43 106.5q0 57 -31.5 90.5t-86.5 33.5q-60 0 -100.5 -42.5t-40.5 -113.5q0 -56 32.5 -88t83.5 -32zM18 193q0 114 70 180.5t170 66.5q52 0 96 -21.5t61 -56.5q1 14 1 41q0 109 -35.5 159t-90.5 50q-97 0 -118 -96h-106q18 85 76.5 134.5t155.5 49.5 q99 0 163.5 -73.5t64.5 -224.5q0 -114 -25 -197.5t-68 -129t-93.5 -66.5t-109.5 -21q-89 0 -150.5 55.5t-61.5 149.5z" glyph-name="partialdiff" unicode="∂"/>
<glyph d="M326 576h-4l-165 -486h332zM21 0l243 688h124l244 -688h-611z" horiz-adv-x="652" glyph-name="Delta" unicode="∆"/>
<glyph d="M87 0v688h558v-688h-108v598h-341v-598h-109z" horiz-adv-x="732" glyph-name="product" unicode="∏"/>
<glyph d="M19 0v53l223 286l-215 289v60h476v-89h-331l191 -254l-202 -256h354v-89h-496z" horiz-adv-x="539" glyph-name="summation" unicode="∑"/>
<glyph d="M57 210v88h454v-88h-454z" glyph-name="minus" unicode="−"/>
<glyph d="M27 292v88l154 49l120 -311h4l198 570h105l-243 -688h-120l-130 320z" horiz-adv-x="598" glyph-name="radical" unicode="√"/>
<glyph d="M403 253q62 -85 118 -85q35 0 56.5 25t21.5 60t-21.5 60t-56.5 25q-56 0 -118 -85zM187 168q56 0 118 85q-62 85 -118 85q-35 0 -56.5 -25t-21.5 -60t21.5 -60t56.5 -25zM190 88q-73 0 -119 46t-46 119t46 119t119 46q94 0 166 -102q73 102 162 102q73 0 119 -46t46 -119 t-46 -119t-119 -46q-95 0 -166 101q-74 -101 -162 -101z" horiz-adv-x="708" glyph-name="infinity" unicode="∞"/>
<glyph d="M27 -96h29q52 0 71 28.5t19 85.5q0 17 -2 57l-30 498q-2 30 -2 45q0 99 40.5 153t142.5 54h40v-88h-29q-52 0 -71 -28.5t-19 -85.5q0 -17 2 -57l30 -498q1 -14 1 -42q0 -100 -40 -155t-142 -55h-40v88z" horiz-adv-x="364" glyph-name="integral" unicode="∫"/>
<glyph d="M52 64q0 80 38 121.5t95 41.5q39 0 76 -18.5t67 -36.5t53 -18q50 0 50 75h86q0 -80 -37.5 -121.5t-92.5 -41.5q-39 0 -77 19t-69 38t-53 19q-50 0 -50 -78h-86zM52 282q0 81 38 122t95 41q39 0 76 -18.5t67 -36.5t53 -18q50 0 50 75h86q0 -80 -37.5 -121.5t-92.5 -41.5 q-39 0 -77 19t-69 38t-53 19q-50 0 -50 -78h-86z" glyph-name="approxequal" unicode="≈"/>
<glyph d="M56 316v88h261l74 138l70 -38l-54 -100h105v-88h-152l-66 -124h218v-88h-265l-74 -138l-70 38l53 100h-100v88h147l67 124h-214z" glyph-name="notequal" unicode="≠"/>
<glyph d="M72 0v88h424v-88h-424zM72 324v89l424 175v-95l-318 -123l318 -124v-98z" glyph-name="lessequal" unicode="≤"/>
<glyph d="M72 0v88h424v-88h-424zM496 413v-90l-424 -175v95l318 123l-318 124v98z" glyph-name="greaterequal" unicode="≥"/>
<glyph d="M328 599h-5l-178 -253l181 -257h4l178 252zM276 0l-246 344l246 344h101l246 -344l-246 -344h-101z" horiz-adv-x="653" glyph-name="lozenge" unicode="◊"/>
<glyph d="M84 0v520h109v-520h-109z" horiz-adv-x="277" glyph-name="dotlessi.sc" unicode=""/>
<glyph d="M583 149h107q0 -38 31.5 -59t85.5 -21q117 0 117 76q0 27 -24.5 42.5t-61.5 20t-79.5 13.5t-79.5 21t-61.5 44.5t-24.5 81.5q0 73 58.5 118.5t159.5 45.5q99 0 154 -42.5t55 -114.5h-104q0 35 -29 55.5t-76 20.5q-50 0 -79.5 -18t-29.5 -54q0 -33 34.5 -49t84 -22.5 t98.5 -17.5t83.5 -44t34.5 -90q0 -78 -60 -123t-170 -45q-106 0 -165 43t-59 118zM42 149h107q0 -38 31.5 -59t85.5 -21q117 0 117 76q0 27 -24.5 42.5t-61.5 20t-79.5 13.5t-79.5 21t-61.5 44.5t-24.5 81.5q0 73 58.5 118.5t159.5 45.5q99 0 154 -42.5t55 -114.5h-104 q0 35 -29 55.5t-76 20.5q-50 0 -79.5 -18t-29.5 -54q0 -33 34.5 -49t83.5 -22.5t98.5 -17.5t84 -44t34.5 -90q0 -78 -60 -123t-170 -45q-106 0 -165 43t-59 118z" horiz-adv-x="1082" glyph-name="germandbls.sc" unicode=""/>
<glyph d="M75 541l-36 61l145 86h54v-274h92v-70h-279v70h98v170z" horiz-adv-x="359" glyph-name="onesuperior" unicode=""/>
<glyph d="M30 344q0 72 31 110t85 64l21 10q69 32 69 59q0 43 -55 43q-60 0 -63 -59h-84q2 63 43.5 94t102.5 31q65 0 104 -28t39 -78q0 -43 -27.5 -68t-81.5 -50l-21 -10q-59 -28 -59 -48h188v-70h-292z" horiz-adv-x="359" glyph-name="twosuperior" unicode=""/>
<glyph d="M34 449h83q0 -25 17 -39t46 -14q28 0 45.5 12.5t17.5 35.5q0 24 -17.5 36.5t-47.5 12.5h-24v56h24q58 0 58 44q0 43 -56 43q-26 0 -41 -13t-15 -36h-82q1 52 39 80.5t102 28.5q62 0 99.5 -27t37.5 -70q0 -29 -15.5 -49.5t-41.5 -26.5v-3q31 -7 49.5 -29t18.5 -54 q0 -49 -39.5 -75t-111.5 -26q-145 0 -146 113z" horiz-adv-x="359" glyph-name="threesuperior" unicode=""/>
<glyph d="M32 111l-41 56l93 64v289h109v-214l105 73l41 -55l-146 -102v-131h263v-91h-372v147z" horiz-adv-x="478" glyph-name="lslash.sc" unicode=""/>
<glyph d="M153 260q0 -75 42 -123t131 -48h93v342h-93q-89 0 -131 -48.5t-42 -122.5zM817 433h-289v-127h234v-84h-234v-135h298v-87h-508q-131 0 -204 71.5t-73 188.5q0 115 73.5 187.5t203.5 72.5h499v-87z" horiz-adv-x="882" glyph-name="oe.sc" unicode=""/>
<glyph d="M226 600l-128 164h95l77 -106l78 106h95l-128 -164h-89zM42 149h107q0 -38 31.5 -59t85.5 -21q117 0 117 76q0 27 -24.5 42.5t-61.5 20t-79.5 13.5t-79.5 21t-61.5 44.5t-24.5 81.5q0 73 58.5 118.5t159.5 45.5q99 0 154 -42.5t55 -114.5h-104q0 35 -29 55.5t-76 20.5 q-50 0 -79.5 -18t-29.5 -54q0 -33 34.5 -49t83.5 -22.5t98.5 -17.5t84 -44t34.5 -90q0 -78 -60 -123t-170 -45q-106 0 -165 43t-59 118z" horiz-adv-x="541" glyph-name="scaron.sc" unicode=""/>
<glyph d="M215 600l-128 164h95l77 -106l78 106h95l-128 -164h-89zM48 430v90h426v-64l-289 -366h286v-90h-433v64l289 366h-279z" horiz-adv-x="518" glyph-name="zcaron.sc" unicode=""/>
<glyph d="M82 0v111h116v-111h-116zM110 158l-29 220v142h118v-142l-29 -220h-60z" horiz-adv-x="280" glyph-name="exclam.sc" unicode=""/>
<glyph d="M202 400q0 -32 47 -79q41 18 63 36t22 43q0 58 -67 58q-29 0 -47 -16.5t-18 -41.5zM265 67q61 0 104 27l-151 137q-71 -36 -71 -85q0 -36 32.5 -57.5t85.5 -21.5zM43 138q0 52 32.5 86t88.5 60q-54 60 -54 113q0 55 41 93.5t120 38.5q78 0 117 -33t39 -91 q0 -49 -32.5 -79t-91.5 -57l122 -115q21 42 21 92v14h90v-15q0 -83 -46 -151l102 -94h-120l-39 36q-70 -48 -170 -48q-106 0 -163 40t-57 110z" horiz-adv-x="596" glyph-name="ampersand.sc" unicode=""/>
<glyph d="M149 244q0 -76 42.5 -122t106.5 -46q65 0 107.5 46t42.5 122q0 78 -42 123t-108 45q-64 0 -106.5 -46t-42.5 -122zM38 244q0 112 72.5 184t187.5 72q119 0 190 -71.5t71 -184.5q0 -112 -72.5 -184t-188.5 -72q-118 0 -189 71.5t-71 184.5z" horiz-adv-x="597" glyph-name="zero.oldstyle" unicode=""/>
<glyph d="M58 275l-46 80l195 133h76v-488h-108v354z" horiz-adv-x="365" glyph-name="one.oldstyle" unicode=""/>
<glyph d="M37 0q0 102 43.5 155t125.5 84l55 22q28 10 40 15.5t28.5 15.5t22.5 23t6 31q0 29 -23 50.5t-76 21.5q-106 0 -115 -105h-101q3 97 66 142t151 45q94 0 149.5 -42t55.5 -112q0 -29 -9.5 -52.5t-20.5 -37.5t-35.5 -28.5t-39.5 -20.5t-46 -18l-56 -21q-93 -35 -94 -82h300 v-86h-427z" horiz-adv-x="508" glyph-name="two.oldstyle" unicode=""/>
<glyph d="M20 8h105q0 -64 37 -98.5t99 -34.5q61 0 98.5 32t37.5 86q0 53 -38.5 85.5t-97.5 32.5h-51v89h51q49 0 82 31t33 79t-32.5 75.5t-82.5 27.5q-51 0 -83 -29.5t-32 -85.5h-99q0 93 59 147.5t155 54.5q98 0 158 -51.5t60 -134.5q0 -50 -30 -94.5t-72 -59.5v-4 q56 -14 92.5 -60t36.5 -107q0 -93 -69 -147t-176 -54q-111 0 -176 56t-65 164z" horiz-adv-x="541" glyph-name="three.oldstyle" unicode=""/>
<glyph d="M135 78h200v251zM21 -12v73l335 431h88v-414h97v-90h-97v-188h-109v188h-314z" horiz-adv-x="552" glyph-name="four.oldstyle" unicode=""/>
<glyph d="M31 -16h107q7 -45 39.5 -76.5t89.5 -31.5q54 0 91.5 36.5t37.5 99.5q0 65 -36.5 102.5t-89.5 37.5q-68 0 -118 -64l-97 6l22 394h388v-93h-292l-11 -199h4q46 44 123 44q90 0 153 -58t63 -162q0 -110 -69 -171t-167 -61q-106 0 -168 52.5t-70 143.5z" horiz-adv-x="521" glyph-name="five.oldstyle" unicode=""/>
<glyph d="M297 352q-59 0 -95 -38t-36 -99t35.5 -100t92.5 -39q58 0 94.5 37.5t36.5 102.5q0 60 -36.5 98t-91.5 38zM42 325q0 194 71.5 284.5t186.5 90.5q99 0 153.5 -50t63.5 -136h-106q-12 98 -111 98q-138 0 -146 -253q20 37 63.5 59t97.5 22q95 0 156.5 -59.5t61.5 -163.5 q0 -106 -69 -167.5t-167 -61.5q-255 0 -255 337z" horiz-adv-x="571" glyph-name="six.oldstyle" unicode=""/>
<glyph d="M62 -200l280 592h-326v96h443v-71l-285 -617h-112z" horiz-adv-x="475" glyph-name="seven.oldstyle" unicode=""/>
<glyph d="M282 400q50 0 83.5 31t33.5 79t-33 77t-84 29t-84.5 -29t-33.5 -77t33.5 -79t84.5 -31zM142 193q0 -55 38.5 -86.5t101.5 -31.5q62 0 100.5 31.5t38.5 86.5q0 53 -39.5 85.5t-99.5 32.5q-61 0 -100.5 -32.5t-39.5 -85.5zM33 185q0 63 37 110t92 61v4q-44 14 -73 57.5 t-29 95.5q0 83 61 135t161 52q99 0 160 -51.5t61 -135.5q0 -52 -29 -95.5t-73 -57.5v-4q55 -14 92 -61t37 -110q0 -92 -67.5 -144.5t-180.5 -52.5t-181 52.5t-68 144.5z" horiz-adv-x="563" glyph-name="eight.oldstyle" unicode=""/>
<glyph d="M265 136q60 0 95.5 39t35.5 103q0 58 -36 96t-92 38q-58 0 -94.5 -37.5t-36.5 -102.5q0 -60 37 -98t91 -38zM520 166q0 -378 -258 -378q-98 0 -155 51t-62 135h106q5 -44 33 -71t78 -27q67 0 104 58t41 195q-20 -37 -62.5 -59t-96.5 -22q-95 0 -157 59.5t-62 163.5 q0 106 69 167.5t167 61.5q255 0 255 -334z" horiz-adv-x="565" glyph-name="nine.oldstyle" unicode=""/>
<glyph d="M174 0v111h112v-111h-112zM181 158v18q0 38 16 66.5t38.5 44.5t44.5 29.5t38 30.5t16 38q0 28 -27.5 47t-70.5 19q-49 0 -75.5 -25t-26.5 -65h-100q0 73 52 122t151 49q91 0 146.5 -38.5t55.5 -106.5q0 -42 -25 -73t-54.5 -46t-54.5 -38t-25 -51v-21h-99z" horiz-adv-x="473" glyph-name="question.sc" unicode=""/>
<glyph d="M275 417h-4l-82 -219h165zM7 0l204 520h128l201 -520h-114l-42 115h-226l-42 -115h-109z" horiz-adv-x="547" glyph-name="a.sc" unicode=""/>
<glyph d="M335 435h-142v-126h142q37 0 56.5 18.5t19.5 49.5q0 58 -76 58zM351 226h-158v-141h158q40 0 61.5 19.5t21.5 53.5q0 31 -22 49.5t-61 18.5zM84 0v520h262q87 0 131.5 -35.5t44.5 -100.5q0 -37 -21.5 -66t-65.5 -40v-3q51 -8 81 -42t30 -81q0 -68 -48.5 -110t-134.5 -42 h-279z" horiz-adv-x="595" glyph-name="b.sc" unicode=""/>
<glyph d="M41 260q0 120 74.5 196t197.5 76q98 0 163 -50.5t81 -134.5h-107q-26 91 -135 91q-74 0 -118 -49t-44 -129q0 -78 44 -128t118 -50q105 0 135 91h107q-16 -84 -81 -134.5t-164 -50.5q-123 0 -197 78t-74 194z" horiz-adv-x="591" glyph-name="c.sc" unicode=""/>
<glyph d="M286 431h-93v-342h93q88 0 130 48.5t42 122.5q0 75 -41.5 123t-130.5 48zM84 0v520h210q131 0 204 -71.5t73 -188.5q0 -115 -73.5 -187.5t-203.5 -72.5h-210z" horiz-adv-x="612" glyph-name="d.sc" unicode=""/>
<glyph d="M84 0v520h398v-87h-289v-127h234v-84h-234v-135h298v-87h-407z" horiz-adv-x="544" glyph-name="e.sc" unicode=""/>
<glyph d="M84 0v520h391v-87h-282v-155h225v-85h-225v-193h-109z" horiz-adv-x="515" glyph-name="f.sc" unicode=""/>
<glyph d="M329 199v82h243v-281h-69l-11 61h-2q-57 -73 -171 -73q-122 0 -198 78t-76 194q0 119 78 195.5t205 76.5q99 0 164.5 -49t79.5 -123h-110q-11 33 -45.5 56t-88.5 23q-78 0 -124.5 -49.5t-46.5 -129.5q0 -79 46 -129.5t123 -50.5q64 0 107 31.5t43 86.5v1h-147z" horiz-adv-x="646" glyph-name="g.sc" unicode=""/>
<glyph d="M84 0v520h109v-213h254v213h109v-520h-109v217h-254v-217h-109z" horiz-adv-x="640" glyph-name="h.sc" unicode=""/>
<glyph d="M84 0v520h109v-520h-109z" horiz-adv-x="277" glyph-name="i.sc" unicode=""/>
<glyph d="M39 158v23h104v-26q0 -78 72 -78t72 81v362h108v-351q0 -92 -48 -136.5t-132 -44.5q-82 0 -129 41.5t-47 128.5z" horiz-adv-x="464" glyph-name="j.sc" unicode=""/>
<glyph d="M84 0v520h109v-254l236 254h126l-217 -228l231 -292h-127l-174 219l-75 -78v-141h-109z" horiz-adv-x="580" glyph-name="k.sc" unicode=""/>
<glyph d="M84 0v520h109v-426h263v-94h-372z" horiz-adv-x="478" glyph-name="l.sc" unicode=""/>
<glyph d="M84 0v520h143l165 -378h2l168 378h137v-520h-107l8 371h-3l-167 -371h-78l-165 371h-4l9 -371h-108z" horiz-adv-x="784" glyph-name="m.sc" unicode=""/>
<glyph d="M84 0v520h96l267 -347h4l-4 347h109v-520h-95l-268 347h-4l4 -347h-109z" horiz-adv-x="640" glyph-name="n.sc" unicode=""/>
<glyph d="M153 260q0 -78 46.5 -128t121.5 -50t121 50t46 128t-46.5 128t-120.5 50q-75 0 -121.5 -49.5t-46.5 -128.5zM41 260q0 118 79 195t201 77t200.5 -77t78.5 -195t-78.5 -195t-200.5 -77t-201 77.5t-79 194.5z" horiz-adv-x="641" glyph-name="o.sc" unicode=""/>
<glyph d="M322 433h-129v-177h129q45 0 68.5 24t23.5 64t-24 64.5t-68 24.5zM84 0v520h246q92 0 142.5 -48t50.5 -127t-50.5 -127.5t-142.5 -48.5h-137v-169h-109z" horiz-adv-x="565" glyph-name="p.sc" unicode=""/>
<glyph d="M153 260q0 -78 46.5 -128t121.5 -50t121 50t46 128t-46.5 128t-120.5 50q-75 0 -121.5 -49.5t-46.5 -128.5zM41 260q0 118 79 195t201 77t200.5 -77t78.5 -195t-80 -196l102 -103l-70 -65l-112 115q-58 -23 -119 -23q-122 0 -201 77.5t-79 194.5z" horiz-adv-x="641" glyph-name="q.sc" unicode=""/>
<glyph d="M326 433h-133v-159h133q44 0 66 21.5t22 59.5q0 36 -23 57t-65 21zM84 0v520h249q92 0 141 -43.5t49 -120.5q0 -123 -114 -158l138 -198h-120l-127 188h-107v-188h-109z" horiz-adv-x="585" glyph-name="r.sc" unicode=""/>
<glyph d="M42 149h107q0 -38 31.5 -59t85.5 -21q117 0 117 76q0 27 -24.5 42.5t-61.5 20t-79.5 13.5t-79.5 21t-61.5 44.5t-24.5 81.5q0 73 58.5 118.5t159.5 45.5q99 0 154 -42.5t55 -114.5h-104q0 35 -29 55.5t-76 20.5q-50 0 -79.5 -18t-29.5 -54q0 -33 34.5 -49t83.5 -22.5 t98.5 -17.5t84 -44t34.5 -90q0 -78 -60 -123t-170 -45q-106 0 -165 43t-59 118z" horiz-adv-x="541" glyph-name="s.sc" unicode=""/>
<glyph d="M22 429v91h481v-91h-186v-429h-109v429h-186z" horiz-adv-x="525" glyph-name="t.sc" unicode=""/>
<glyph d="M68 210v310h109v-308q0 -129 125 -129q64 0 96.5 33.5t32.5 95.5v308h109v-310q0 -222 -238 -222q-234 0 -234 222z" horiz-adv-x="608" glyph-name="u.sc" unicode=""/>
<glyph d="M200 0l-193 520h115l148 -417h4l150 417h108l-195 -520h-137z" horiz-adv-x="539" glyph-name="v.sc" unicode=""/>
<glyph d="M151 0l-137 520h114l97 -406h4l118 406h105l118 -406h4l92 406h111l-135 -520h-135l-108 380h-3l-109 -380h-136z" horiz-adv-x="791" glyph-name="w.sc" unicode=""/>
<glyph d="M7 0l193 266l-185 254h128l123 -176l120 176h123l-185 -252l193 -268h-120l-138 193l-135 -193h-117z" horiz-adv-x="525" glyph-name="x.sc" unicode=""/>
<glyph d="M209 0v199l-205 321h125l137 -222h2l142 222h116l-209 -318v-202h-108z" horiz-adv-x="530" glyph-name="y.sc" unicode=""/>
<glyph d="M48 430v90h426v-64l-289 -366h286v-90h-433v64l289 366h-279z" horiz-adv-x="518" glyph-name="z.sc" unicode=""/>
<glyph d="M81 0v142l29 220h60l29 -220v-142h-118zM82 409v111h116v-111h-116z" horiz-adv-x="280" glyph-name="exclamdown.sc" unicode=""/>
<glyph d="M298 520v-111h-112v111h112zM292 362v-18q0 -38 -16 -66.5t-38 -44.5t-44.5 -29.5t-38.5 -30.5t-16 -38q0 -28 27 -47t71 -19q49 0 75 25t26 65h101q0 -73 -52 -122t-151 -49q-91 0 -146.5 38.5t-55.5 106.5q0 42 24.5 73t54.5 46t54.5 38t24.5 51v21h100z" horiz-adv-x="473" glyph-name="questiondown.sc" unicode=""/>
<glyph d="M237 600l-146 164h120l102 -164h-76zM275 417h-4l-82 -219h165zM7 0l204 520h128l201 -520h-114l-42 115h-226l-42 -115h-109z" horiz-adv-x="547" glyph-name="agrave.sc" unicode=""/>
<glyph d="M236 600l102 164h120l-146 -164h-76zM275 417h-4l-82 -219h165zM7 0l204 520h128l201 -520h-114l-42 115h-226l-42 -115h-109z" horiz-adv-x="547" glyph-name="aacute.sc" unicode=""/>
<glyph d="M102 600l128 164h89l128 -164h-95l-78 106l-77 -106h-95zM275 417h-4l-82 -219h165zM7 0l204 520h128l201 -520h-114l-42 115h-226l-42 -115h-109z" horiz-adv-x="547" glyph-name="acircumflex.sc" unicode=""/>
<glyph d="M105 623q2 53 27.5 85t72.5 32q32 0 79.5 -23t63.5 -23q34 0 42 48h54q-2 -53 -27.5 -85t-72.5 -32q-32 0 -80 23t-63 23q-36 0 -42 -48h-54zM275 417h-4l-82 -219h165zM7 0l204 520h128l201 -520h-114l-42 115h-226l-42 -115h-109z" horiz-adv-x="547" glyph-name="atilde.sc" unicode=""/>
<glyph d="M118 632v104h103v-104h-103zM328 632v104h102v-104h-102zM275 417h-4l-82 -219h165zM7 0l204 520h128l201 -520h-114l-42 115h-226l-42 -115h-109z" horiz-adv-x="547" glyph-name="adieresis.sc" unicode=""/>
<glyph d="M274 640q21 0 36 14.5t15 35.5t-15 35.5t-36 14.5t-35.5 -14.5t-14.5 -35.5t15 -35.5t35 -14.5zM274 591q-43 0 -73 28t-30 71t30.5 71t72.5 28q43 0 73.5 -28t30.5 -71t-30.5 -71t-73.5 -28zM275 417h-4l-82 -219h165zM7 0l204 520h128l201 -520h-114l-42 115h-226 l-42 -115h-109z" horiz-adv-x="547" glyph-name="aring.sc" unicode=""/>
<glyph d="M428 417l-162 -218h166v218h-4zM-2 0l397 520h434v-87h-289v-127h234v-84h-234v-135h298v-87h-406v115h-228l-85 -115h-121z" horiz-adv-x="895" glyph-name="ae.sc" unicode=""/>
<glyph d="M265 -86l26 75q-114 7 -182 83.5t-68 187.5q0 120 74.5 196t197.5 76q98 0 163 -50.5t81 -134.5h-107q-26 91 -135 91q-74 0 -118 -49t-44 -129q0 -78 44 -128t118 -50q105 0 135 91h107q-15 -80 -75 -130t-151 -54v-26q44 -2 68 -26.5t24 -60.5q0 -43 -30 -69.5 t-87 -26.5h-61v59h53q49 0 49 38q0 37 -49 37h-33z" horiz-adv-x="591" glyph-name="ccedilla.sc" unicode=""/>
<glyph d="M245 600l-146 164h120l102 -164h-76zM84 0v520h398v-87h-289v-127h234v-84h-234v-135h298v-87h-407z" horiz-adv-x="544" glyph-name="egrave.sc" unicode=""/>
<glyph d="M244 600l102 164h120l-146 -164h-76zM84 0v520h398v-87h-289v-127h234v-84h-234v-135h298v-87h-407z" horiz-adv-x="544" glyph-name="eacute.sc" unicode=""/>
<glyph d="M110 600l128 164h89l128 -164h-95l-78 106l-77 -106h-95zM84 0v520h398v-87h-289v-127h234v-84h-234v-135h298v-87h-407z" horiz-adv-x="544" glyph-name="ecircumflex.sc" unicode=""/>
<glyph d="M126 632v104h103v-104h-103zM336 632v104h102v-104h-102zM84 0v520h398v-87h-289v-127h234v-84h-234v-135h298v-87h-407z" horiz-adv-x="544" glyph-name="edieresis.sc" unicode=""/>
<glyph d="M100 600l-146 164h120l102 -164h-76zM84 0v520h109v-520h-109z" horiz-adv-x="277" glyph-name="igrave.sc" unicode=""/>
<glyph d="M99 600l102 164h120l-146 -164h-76zM84 0v520h109v-520h-109z" horiz-adv-x="277" glyph-name="iacute.sc" unicode=""/>
<glyph d="M-35 600l128 164h89l128 -164h-95l-78 106l-77 -106h-95zM84 0v520h109v-520h-109z" horiz-adv-x="277" glyph-name="icircumflex.sc" unicode=""/>
<glyph d="M-19 632v104h103v-104h-103zM191 632v104h102v-104h-102zM84 0v520h109v-520h-109z" horiz-adv-x="277" glyph-name="idieresis.sc" unicode=""/>
<glyph d="M286 431h-93v-137h106v-68h-106v-137h93q88 0 130 48.5t42 122.5q0 75 -41.5 123t-130.5 48zM4 226v68h80v226h210q131 0 204 -71.5t73 -188.5q0 -115 -73.5 -187.5t-203.5 -72.5h-210v226h-80z" horiz-adv-x="612" glyph-name="eth.sc" unicode=""/>
<glyph d="M151 623q2 53 27.5 85t72.5 32q32 0 79.5 -23t63.5 -23q34 0 42 48h54q-2 -53 -27.5 -85t-72.5 -32q-32 0 -80 23t-63 23q-36 0 -42 -48h-54zM84 0v520h96l267 -347h4l-4 347h109v-520h-95l-268 347h-4l4 -347h-109z" horiz-adv-x="640" glyph-name="ntilde.sc" unicode=""/>
<glyph d="M284 600l-146 164h120l102 -164h-76zM153 260q0 -78 46.5 -128t121.5 -50t121 50t46 128t-46.5 128t-120.5 50q-75 0 -121.5 -49.5t-46.5 -128.5zM41 260q0 118 79 195t201 77t200.5 -77t78.5 -195t-78.5 -195t-200.5 -77t-201 77.5t-79 194.5z" horiz-adv-x="641" glyph-name="ograve.sc" unicode=""/>
<glyph d="M283 600l102 164h120l-146 -164h-76zM153 260q0 -78 46.5 -128t121.5 -50t121 50t46 128t-46.5 128t-120.5 50q-75 0 -121.5 -49.5t-46.5 -128.5zM41 260q0 118 79 195t201 77t200.5 -77t78.5 -195t-78.5 -195t-200.5 -77t-201 77.5t-79 194.5z" horiz-adv-x="641" glyph-name="oacute.sc" unicode=""/>
<glyph d="M149 600l128 164h89l128 -164h-95l-78 106l-77 -106h-95zM153 260q0 -78 46.5 -128t121.5 -50t121 50t46 128t-46.5 128t-120.5 50q-75 0 -121.5 -49.5t-46.5 -128.5zM41 260q0 118 79 195t201 77t200.5 -77t78.5 -195t-78.5 -195t-200.5 -77t-201 77.5t-79 194.5z" horiz-adv-x="641" glyph-name="ocircumflex.sc" unicode=""/>
<glyph d="M152 623q2 53 27.5 85t72.5 32q32 0 79.5 -23t63.5 -23q34 0 42 48h54q-2 -53 -27.5 -85t-72.5 -32q-32 0 -80 23t-63 23q-36 0 -42 -48h-54zM153 260q0 -78 46.5 -128t121.5 -50t121 50t46 128t-46.5 128t-120.5 50q-75 0 -121.5 -49.5t-46.5 -128.5zM41 260 q0 118 79 195t201 77t200.5 -77t78.5 -195t-78.5 -195t-200.5 -77t-201 77.5t-79 194.5z" horiz-adv-x="641" glyph-name="otilde.sc" unicode=""/>
<glyph d="M165 632v104h103v-104h-103zM375 632v104h102v-104h-102zM153 260q0 -78 46.5 -128t121.5 -50t121 50t46 128t-46.5 128t-120.5 50q-75 0 -121.5 -49.5t-46.5 -128.5zM41 260q0 118 79 195t201 77t200.5 -77t78.5 -195t-78.5 -195t-200.5 -77t-201 77.5t-79 194.5z" horiz-adv-x="641" glyph-name="odieresis.sc" unicode=""/>
<glyph d="M488 260q0 66 -34 112l-222 -267q38 -23 89 -23q75 0 121 50t46 128zM153 260q0 -68 35 -115l223 268q-39 25 -90 25q-75 0 -121.5 -49.5t-46.5 -128.5zM57 -12l64 76q-80 78 -80 196t79 195t201 77q87 0 154 -42l35 42h77l-65 -78q78 -78 78 -194q0 -118 -78.5 -195 t-200.5 -77q-84 0 -153 40l-33 -40h-78z" horiz-adv-x="641" glyph-name="oslash.sc" unicode=""/>
<glyph d="M267 600l-146 164h120l102 -164h-76zM68 210v310h109v-308q0 -129 125 -129q64 0 96.5 33.5t32.5 95.5v308h109v-310q0 -222 -238 -222q-234 0 -234 222z" horiz-adv-x="608" glyph-name="ugrave.sc" unicode=""/>
<glyph d="M266 600l102 164h120l-146 -164h-76zM68 210v310h109v-308q0 -129 125 -129q64 0 96.5 33.5t32.5 95.5v308h109v-310q0 -222 -238 -222q-234 0 -234 222z" horiz-adv-x="608" glyph-name="uacute.sc" unicode=""/>
<glyph d="M132 600l128 164h89l128 -164h-95l-78 106l-77 -106h-95zM68 210v310h109v-308q0 -129 125 -129q64 0 96.5 33.5t32.5 95.5v308h109v-310q0 -222 -238 -222q-234 0 -234 222z" horiz-adv-x="608" glyph-name="ucircumflex.sc" unicode=""/>
<glyph d="M148 632v104h103v-104h-103zM358 632v104h102v-104h-102zM68 210v310h109v-308q0 -129 125 -129q64 0 96.5 33.5t32.5 95.5v308h109v-310q0 -222 -238 -222q-234 0 -234 222z" horiz-adv-x="608" glyph-name="udieresis.sc" unicode=""/>
<glyph d="M227 600l102 164h120l-146 -164h-76zM209 0v199l-205 321h125l137 -222h2l142 222h116l-209 -318v-202h-108z" horiz-adv-x="530" glyph-name="yacute.sc" unicode=""/>
<glyph d="M322 356h-129v-178h129q44 0 68 24.5t24 64.5t-24 64.5t-68 24.5zM84 0v520h109v-77h137q91 0 142 -48.5t51 -126.5q0 -79 -50.5 -128t-142.5 -49h-137v-91h-109z" horiz-adv-x="565" glyph-name="thorn.sc" unicode=""/>
<glyph d="M109 632v104h103v-104h-103zM319 632v104h102v-104h-102zM209 0v199l-205 321h125l137 -222h2l142 222h116l-209 -318v-202h-108z" horiz-adv-x="530" glyph-name="ydieresis.sc" unicode=""/>
<glyph d="M397 55q38 0 65 23t27 66v34q-12 -12 -39 -15l-58 -7q-57 -7 -57 -50q0 -22 16.5 -36.5t45.5 -14.5zM237 96q0 47 32.5 77.5t97.5 37.5l71 8q29 3 40 9.5t11 19.5q0 29 -18.5 46.5t-52.5 17.5q-31 0 -50.5 -16.5t-22.5 -46.5h-89q5 66 51 98t111 32q79 0 122 -35.5 t43 -103.5v-115q0 -75 59 -75q34 0 57.5 38t23.5 116q0 122 -83.5 193.5t-215.5 71.5q-139 0 -223 -83t-84 -210t81 -207.5t215 -80.5q108 0 161 50h90q-88 -113 -251 -113q-162 0 -263.5 100.5t-101.5 250.5q0 151 104 253.5t272 102.5q161 0 264.5 -91t103.5 -237 q0 -107 -48 -159.5t-122 -52.5q-91 0 -118 57q-39 -60 -136 -60q-62 0 -96.5 29.5t-34.5 77.5z" horiz-adv-x="840" glyph-name="at.sc"/>
<glyph d="M252 72q102 0 102 188t-102 188t-102 -188t102 -188zM252 -12q-109 0 -161.5 75t-52.5 197t52.5 197t161.5 75t161.5 -75t52.5 -197t-52.5 -197t-161.5 -75z" horiz-adv-x="504" glyph-name="zero.sc"/>
<glyph d="M105 322l-43 75l194 123h72v-435h131v-85h-377v85h139v308z" horiz-adv-x="504" glyph-name="one.sc"/>
<glyph d="M50 0q3 94 34.5 147t102.5 93l69 38q46 27 65.5 46.5t19.5 51.5q0 30 -22.5 51t-65.5 21q-90 0 -96 -89h-99q4 89 58.5 131t137.5 42q86 0 138 -40.5t52 -110.5q0 -58 -29 -93.5t-90 -71.5l-69 -38q-49 -29 -65.5 -49t-18.5 -44h277v-85h-399z" horiz-adv-x="504" glyph-name="two.sc"/>
<glyph d="M46 155h101q0 -46 28.5 -68.5t74.5 -22.5q47 0 75 21.5t28 64.5q0 39 -28 60.5t-73 21.5h-41v75h42q37 0 61.5 21t24.5 54q0 34 -24 54t-65 20q-38 0 -63.5 -20.5t-25.5 -57.5h-93q0 71 50.5 112.5t131.5 41.5q87 0 137.5 -40t50.5 -108q0 -39 -21.5 -68.5t-58.5 -41.5 v-4q46 -15 74 -49t28 -81q0 -73 -59 -112.5t-152 -39.5q-96 0 -149.5 41t-53.5 126z" horiz-adv-x="504" glyph-name="three.sc"/>
<glyph d="M132 191h152v193zM27 108v68l274 344h89v-329h79v-83h-79v-108h-106v108h-257z" horiz-adv-x="504" glyph-name="four.sc"/>
<glyph d="M47 138h106q13 -70 99 -70q44 0 71.5 25.5t27.5 70.5q0 43 -27 68t-69 25q-55 0 -92 -50l-100 10l17 303h344v-88h-252l-8 -134h4q41 37 107 37q75 0 128 -44t53 -126q0 -83 -59 -130t-144 -47q-94 0 -146 39.5t-60 110.5z" horiz-adv-x="504" glyph-name="five.sc"/>
<glyph d="M260 254q-43 0 -69.5 -24.5t-26.5 -68.5q0 -41 27 -65.5t69 -24.5q43 0 69.5 25t26.5 68q0 41 -26.5 65.5t-69.5 24.5zM267 452q-103 0 -112 -170q16 24 51 38.5t74 14.5q78 0 129.5 -43.5t51.5 -126.5q0 -82 -58 -129.5t-142 -47.5q-217 0 -217 260q0 149 62 216.5 t161 67.5q86 0 131.5 -40t53.5 -106h-103q-14 66 -82 66z" horiz-adv-x="504" glyph-name="six.sc"/>
<glyph d="M113 0l230 426h-297v94h417v-63l-236 -457h-114z" horiz-adv-x="504" glyph-name="seven.sc"/>
<glyph d="M163 382q0 -35 25 -55t64 -20t64 20t25 55q0 34 -25.5 54.5t-63.5 20.5t-63.5 -20.5t-25.5 -54.5zM149 147q0 -38 29 -60.5t74 -22.5t74 22.5t29 60.5q0 39 -29 62t-74 23t-74 -23t-29 -62zM65 384q0 68 51 108t136 40t136 -40t51 -108q0 -38 -21 -68t-58 -42v-4 q46 -15 74 -49t28 -81q0 -73 -57.5 -112.5t-152.5 -39.5t-152.5 39.5t-57.5 112.5q0 47 28 81t74 49v4q-37 12 -58 42t-21 68z" horiz-adv-x="504" glyph-name="eight.sc"/>
<glyph d="M243 266q43 0 69.5 23.5t26.5 69.5q0 43 -26.5 66.5t-69.5 23.5t-68 -25t-25 -68q0 -41 25 -65.5t68 -24.5zM242 68q47 0 74.5 38t31.5 132q-16 -24 -51 -38.5t-74 -14.5q-78 0 -129.5 43.5t-51.5 126.5q0 82 58 129.5t142 47.5q217 0 217 -260q0 -149 -59.5 -216.5 t-157.5 -67.5q-86 0 -134.5 40t-56.5 106h103q6 -28 27.5 -47t60.5 -19z" horiz-adv-x="504" glyph-name="nine.sc"/>
<glyph d="M252 166q39 0 64.5 26t25.5 68t-25.5 68t-64.5 26t-64.5 -26t-25.5 -68t25.5 -68t64.5 -26zM103 60l-51 50l59 60q-28 44 -28 90q0 47 30 91l-60 60l51 50l59 -61q42 24 89 24q46 0 88 -24l60 61l51 -50l-60 -60q30 -44 30 -91q0 -45 -29 -90l60 -60l-51 -50l-60 60 q-37 -24 -89 -24q-53 0 -89 24z" horiz-adv-x="504" glyph-name="currency.sc"/>
<glyph d="M38 150h104q1 -37 30.5 -60.5t74.5 -23.5q46 0 72.5 19t26.5 53q0 30 -20.5 45t-65.5 27l-69 18q-138 34 -138 147q0 61 40 102.5t111 51.5v87h88v-88q63 -11 102.5 -49t43.5 -93h-100q-6 32 -30 50t-60 18q-38 0 -63 -16.5t-25 -48.5q0 -28 19 -43.5t63 -27.5l69 -18 q71 -18 107 -53t36 -97q0 -66 -43 -107.5t-119 -51.5v-91h-88v91q-76 9 -120 51t-46 108z" horiz-adv-x="504" glyph-name="dollar.sc"/>
<glyph d="M220 -12v78q-78 13 -122 66t-44 131q0 77 45 129.5t125 64.5v75h87v-76q65 -11 103.5 -50t43.5 -90h-104q-5 25 -28 43.5t-59 18.5q-51 0 -77.5 -32.5t-26.5 -82.5q0 -51 26.5 -84.5t74.5 -33.5q38 0 61 19.5t29 45.5h101q-5 -52 -44.5 -92.5t-103.5 -51.5v-78h-87z" horiz-adv-x="504" glyph-name="cent.sc"/>
<glyph d="M11 188l14 48h50v24q0 20 1 30h-51l15 48h41q16 89 68.5 141t143.5 52q81 0 126.5 -42t57.5 -114h-97q-5 33 -27 53t-57 20q-84 0 -104 -110h150l-15 -48h-141v-54h137l-14 -48h-118q19 -116 105 -116q63 0 81 65h98q-31 -148 -182 -148q-93 0 -146 53.5t-67 145.5h-69z " horiz-adv-x="504" glyph-name="Euro.sc"/>
<glyph d="M84 175v50h112l-182 295h124l119 -203h2l120 203h111l-179 -295h112v-50h-115v-51h115v-50h-115v-74h-105v74h-119v50h119v51h-119z" horiz-adv-x="504" glyph-name="yen.sc"/>
<glyph d="M119 44q42 0 54 53q-26 18 -50 18q-21 0 -31.5 -10.5t-10.5 -25.5t10 -25t28 -10zM66 241v58h66q-24 52 -24 88q0 67 44 106t122 39q145 0 156 -138h-92q-9 62 -64 62q-29 0 -46.5 -17t-17.5 -48q0 -36 26 -92h126v-58h-101q10 -32 10 -62q0 -36 -12 -72q63 -42 90 -42 q23 0 32.5 15.5t11.5 48.5h82q-2 -68 -29 -104.5t-88 -36.5q-57 0 -128 63q-43 -60 -109 -60q-48 0 -75.5 22.5t-27.5 61.5q0 43 29 67t75 24q25 0 56 -12v7q0 35 -18 80h-94z" horiz-adv-x="504" glyph-name="sterling.sc"/>
<glyph d="M75 199v63h102l15 129q16 141 153 141q60 0 95.5 -27.5t35.5 -79.5v-10q1 -10 0 -10l-5 -31h-89l3 28q0 2 0.5 5.5t0.5 5.5q0 44 -40 44t-47 -66l-15 -129h118v-63h-125l-24 -219q-9 -75 -47.5 -108t-105.5 -33q-60 0 -95.5 27.5t-35.5 79.5q0 13 1 20l4 31h89l-3 -28 q0 -2 -0.5 -5.5t-0.5 -5.5q0 -44 40 -44q22 0 32.5 16t14.5 50l24 219h-95z" horiz-adv-x="504" glyph-name="florin.sc"/>
<glyph d="M61 218v88h145v149h92v-149h145v-88h-145v-148h-92v148h-145z" horiz-adv-x="504" glyph-name="plus.sc"/>
<glyph d="M61 218v88h382v-88h-382z" horiz-adv-x="504" glyph-name="minus.sc"/>
<glyph d="M131 79l-60 60l120 122l-122 125l61 60l120 -124l121 124l61 -60l-122 -125l120 -122l-60 -60l-120 122z" horiz-adv-x="504" glyph-name="multiply.sc"/>
<glyph d="M203 51v98h98v-98h-98zM61 218v88h382v-88h-382zM203 372v97h98v-97h-98z" horiz-adv-x="504" glyph-name="divide.sc"/>
<glyph d="M61 131v87h382v-87h-382zM61 305v87h382v-87h-382z" horiz-adv-x="504" glyph-name="equal.sc"/>
<glyph d="M432 157v-93l-360 156v87l360 156v-93l-260 -107z" horiz-adv-x="504" glyph-name="less.sc"/>
<glyph d="M72 370v93l360 -156v-87l-360 -156v93l259 106z" horiz-adv-x="504" glyph-name="greater.sc"/>
<glyph d="M80 0v82h341v-82h-341zM80 250v82h127v119h87v-119h127v-82h-127v-120h-87v120h-127z" horiz-adv-x="504" glyph-name="plusminus.sc"/>
<glyph d="M80 0v82h341v-82h-341zM421 369l-237 -80l237 -79v-87l-341 124v86l341 123v-87z" horiz-adv-x="504" glyph-name="lessequal.sc"/>
<glyph d="M83 82h341v-82h-341v82zM83 369v87l341 -123v-86l-341 -124v87l236 79z" horiz-adv-x="504" glyph-name="greaterequal.sc"/>
<glyph d="M61 305v87h223l56 98l62 -33l-37 -65h78v-87h-127l-49 -87h176v-87h-225l-55 -98l-62 33l36 65h-76v87h125l49 87h-174z" horiz-adv-x="504" glyph-name="notequal.sc"/>
<glyph d="M61 218v88h382v-236h-91v148h-291z" horiz-adv-x="504" glyph-name="logicalnot.sc"/>
<glyph d="M53 193q1 74 34 109.5t81 35.5q42 0 93.5 -27.5t70.5 -27.5q39 0 39 56h82q-1 -73 -33.5 -107.5t-81.5 -34.5q-38 0 -90.5 27.5t-73.5 27.5q-40 0 -40 -59h-81z" horiz-adv-x="504" glyph-name="asciitilde.sc"/>
<glyph d="M53 279q1 74 34 109.5t81 35.5q42 0 93.5 -27.5t70.5 -27.5q39 0 39 56h82q-1 -73 -33.5 -107.5t-81.5 -34.5q-38 0 -90.5 27.5t-73.5 27.5q-40 0 -40 -59h-81zM53 95q1 74 34 109.5t81 35.5q42 0 93.5 -27.5t70.5 -27.5q39 0 39 56h82q-1 -73 -33.5 -107.5t-81.5 -34.5 q-38 0 -90.5 27.5t-73.5 27.5q-40 0 -40 -59h-81z" horiz-adv-x="504" glyph-name="approxequal.sc"/>
<glyph d="M350 260q43 -66 90 -66q29 0 47.5 18t18.5 48t-18.5 48t-47.5 18q-47 0 -90 -66zM166 194q46 0 91 66q-45 66 -91 66q-29 0 -47.5 -18t-18.5 -48t18.5 -48t47.5 -18zM165 123q-63 0 -101.5 37.5t-38.5 99.5t38.5 99.5t101.5 37.5q81 0 138 -80q57 80 138 80 q63 0 101.5 -37.5t38.5 -99.5t-38.5 -99.5t-101.5 -37.5q-81 0 -138 80q-59 -80 -138 -80z" horiz-adv-x="606" glyph-name="infinity.sc"/>
<glyph d="M215 337l-25 -145h131l25 145h-131zM43 337v72h101l20 111h84l-20 -111h131l20 111h84l-20 -111h77v-72h-90l-25 -145h87v-73h-100l-21 -119h-84l21 119h-131l-21 -119h-84l21 119h-77v73h90l25 145h-88z" horiz-adv-x="521" glyph-name="numbersign.sc"/>
<glyph d="M464 49q48 0 48 81q0 82 -48 82q-47 0 -47 -82q0 -81 47 -81zM464 -6q-58 0 -87 36.5t-29 99.5t29 99.5t87 36.5q59 0 88 -36.5t29 -99.5t-29 -99.5t-88 -36.5zM122 -9l297 538h60l-298 -538h-59zM136 309q47 0 47 81q0 82 -47 82q-48 0 -48 -82q0 -81 48 -81zM136 254 q-59 0 -88 36.5t-29 99.5t29 99.5t88 36.5t88 -36.5t29 -99.5t-29 -99.5t-88 -36.5z" horiz-adv-x="600" glyph-name="percent.sc"/>
<glyph d="M748 49q47 0 47 81q0 82 -47 82q-48 0 -48 -82q0 -81 48 -81zM748 -6q-59 0 -88 36.5t-29 99.5t29 99.5t88 36.5t88 -36.5t29 -99.5t-29 -99.5t-88 -36.5zM464 49q48 0 48 81q0 82 -48 82q-47 0 -47 -82q0 -81 47 -81zM464 -6q-58 0 -87 36.5t-29 99.5t29 99.5t87 36.5 q59 0 88 -36.5t29 -99.5t-29 -99.5t-88 -36.5zM122 -9l297 538h60l-298 -538h-59zM136 309q47 0 47 81q0 82 -47 82q-48 0 -48 -82q0 -81 48 -81zM136 254q-59 0 -88 36.5t-29 99.5t29 99.5t88 36.5t88 -36.5t29 -99.5t-29 -99.5t-88 -36.5z" horiz-adv-x="883" glyph-name="perthousand.sc"/>
<glyph d="M56 217v93h284v-93h-284z" horiz-adv-x="396" glyph-name="hyphen.sc"/>
<glyph d="M56 217v93h444v-93h-444z" horiz-adv-x="556" glyph-name="endash.sc"/>
<glyph d="M56 217v93h728v-93h-728z" horiz-adv-x="840" glyph-name="emdash.sc"/>
<glyph d="M44 319v73h104v128h86v-128h104v-73h-104v-319h-86v319h-104z" horiz-adv-x="382" glyph-name="dagger.sc"/>
<glyph d="M44 331v74h104v115h86v-115h104v-74h-104v-146h104v-74h-104v-111h-86v111h-104v74h104v146h-104z" horiz-adv-x="382" glyph-name="daggerdbl.sc"/>
<glyph d="M291 -92h-93q-45 59 -80.5 155t-35.5 197t35.5 197t80.5 155h93q-43 -57 -78 -154.5t-35 -197.5q0 -99 35 -197t78 -155z" horiz-adv-x="306" glyph-name="parenleft.sc"/>
<glyph d="M15 -92q43 56 78 154t35 198t-35 198t-78 154h94q45 -60 80.5 -155.5t35.5 -196.5q0 -100 -35.5 -196t-80.5 -156h-94z" horiz-adv-x="306" glyph-name="parenright.sc"/>
<glyph d="M82 -92v704h206v-81h-113v-542h113v-81h-206z" horiz-adv-x="303" glyph-name="bracketleft.sc"/>
<glyph d="M15 -11h113v542h-113v81h207v-704h-207v81z" horiz-adv-x="303" glyph-name="bracketright.sc"/>
<glyph d="M109 42v79q0 59 -20 83t-73 24v68q53 0 73 24t20 84v74q0 68 32.5 101t112.5 33h51v-78h-36q-41 0 -55 -13.5t-14 -51.5v-91q0 -90 -90 -114v-4q90 -24 90 -113v-94q0 -39 14.5 -53t54.5 -14h36v-78h-51q-80 0 -112.5 33t-32.5 101z" horiz-adv-x="320" glyph-name="braceleft.sc"/>
<glyph d="M15 -14h36q40 0 54.5 14t14.5 53v94q0 45 21 73t69 40v4q-90 24 -90 114v91q0 38 -14 51.5t-55 13.5h-36v78h51q79 0 111.5 -33t32.5 -101v-74q0 -60 20 -84t73 -24v-68q-53 0 -73 -24t-20 -83v-79q0 -68 -32.5 -101t-111.5 -33h-51v78z" horiz-adv-x="320" glyph-name="braceright.sc"/>
<glyph d="M6 -12l232 544h92l-232 -544h-92z" horiz-adv-x="336" glyph-name="slash.sc"/>
<glyph d="M238 -12l-232 544h92l232 -544h-92z" horiz-adv-x="336" glyph-name="backslash.sc"/>
<glyph d="M72 253v110l43 157h54l-30 -149h50v-118h-117z" horiz-adv-x="262" glyph-name="quoteleft.sc"/>
<glyph d="M265 253v110l43 157h54l-30 -149h50v-118h-117zM72 253v110l43 157h54l-30 -149h50v-118h-117z" horiz-adv-x="454" glyph-name="quotedblleft.sc"/>
<glyph d="M92 253l31 149h-51v118h117v-110l-43 -157h-54z" horiz-adv-x="262" glyph-name="quoteright.sc"/>
<glyph d="M285 253l31 149h-51v118h117v-110l-43 -157h-54zM92 253l31 149h-51v118h117v-110l-43 -157h-54z" horiz-adv-x="454" glyph-name="quotedblright.sc"/>
<glyph d="M160 104l-110 159l110 159h85l-90 -159l90 -159h-85z" horiz-adv-x="295" glyph-name="guilsinglleft.sc"/>
<glyph d="M50 104l90 159l-90 159h85l110 -159l-110 -159h-85z" horiz-adv-x="295" glyph-name="guilsinglright.sc"/>
<glyph d="M159 104l-109 159l109 159h85l-90 -159l90 -159h-85zM330 104l-109 159l109 159h85l-89 -159l89 -159h-85z" horiz-adv-x="465" glyph-name="guillemotleft.sc"/>
<glyph d="M50 104l90 159l-90 159h85l109 -159l-109 -159h-85zM221 104l90 159l-90 159h85l109 -159l-109 -159h-85z" horiz-adv-x="465" glyph-name="guillemotright.sc"/>
<glyph d="M78 253l-17 176v91h103v-91l-17 -176h-69z" horiz-adv-x="225" glyph-name="quotesingle.sc"/>
<glyph d="M264 253l-17 176v91h103v-91l-17 -176h-69zM78 253l-17 176v91h103v-91l-17 -176h-69z" horiz-adv-x="411" glyph-name="quotedbl.sc"/>
<glyph d="M190 529h83l-15 -128l116 55l26 -80l-127 -25l88 -93l-67 -49l-63 112l-62 -112l-67 49l86 94l-124 24l25 80l116 -54z" horiz-adv-x="463" glyph-name="asterisk.sc"/>
<glyph d="M189 461q-29 0 -48.5 -20t-19.5 -52t19.5 -52t48.5 -20q30 0 49 19.5t19 52.5q0 32 -19 52t-49 20zM189 245q-64 0 -106.5 40t-42.5 104q0 63 42.5 103t106.5 40t106.5 -40t42.5 -103q0 -64 -42.5 -104t-106.5 -40z" horiz-adv-x="378" glyph-name="degree.sc"/>
<glyph d="M204 131q-55 0 -93.5 38.5t-38.5 93.5t38.5 93.5t93.5 38.5t93.5 -38.5t38.5 -93.5t-38.5 -93.5t-93.5 -38.5z" horiz-adv-x="408" glyph-name="bullet.sc"/>
<glyph d="M70 205v117h119v-117h-119z" horiz-adv-x="259" glyph-name="periodcentered.sc"/>
<glyph d="M194 0v188q-72 11 -113 53.5t-41 112.5q0 76 50.5 121t140.5 45h56v-520h-93zM351 0v520h92v-520h-92z" horiz-adv-x="521" glyph-name="paragraph.sc"/>
<glyph d="M230 243l-38 12q-31 -8 -50.5 -28.5t-19.5 -43.5q0 -28 16 -41.5t58 -26.5l38 -13q31 9 50 29t19 44q0 28 -16 41.5t-57 26.5zM37 -51h90q4 -27 26 -40.5t54 -13.5q80 0 80 61q0 25 -16 37.5t-53 24.5l-72 24q-59 18 -85.5 46.5t-26.5 77.5q0 38 22.5 68.5t61.5 46.5 q-73 37 -73 110q0 61 46 100t128 39q74 0 120 -31t50 -90h-91q-7 53 -80 53q-38 0 -59 -15.5t-21 -44.5q0 -25 16 -37.5t54 -25.5l72 -23q59 -19 85 -47t26 -77q0 -38 -22 -69t-61 -47q73 -37 73 -109q0 -61 -46 -100t-129 -39q-74 0 -119.5 31t-49.5 90z" horiz-adv-x="426" glyph-name="section.sc"/>
<glyph d="M174 263q0 59 35.5 97.5t99.5 38.5q47 0 79 -26t39 -68h-68q-11 36 -50 36q-30 0 -48 -21.5t-18 -56.5t17.5 -56t48.5 -21q40 0 50 35h68q-7 -42 -39 -68t-79 -26q-64 0 -99.5 39t-35.5 97zM99 263q0 -91 58 -155t147 -64q88 0 148 64t60 155t-59 152t-149 61 q-89 0 -147 -61t-58 -152zM38 263q0 115 75.5 192t190.5 77t192 -77t77 -192t-76.5 -195t-192.5 -80q-115 0 -190.5 79.5t-75.5 195.5z" horiz-adv-x="611" glyph-name="copyright.sc"/>
<glyph d="M312 336h-48v-67h48q40 0 40 35q0 32 -40 32zM192 135v256h130q50 0 76 -23t26 -63q0 -58 -55 -80l60 -90h-74l-53 81h-38v-81h-72zM99 263q0 -91 58 -155t147 -64q88 0 148 64t60 155t-59 152t-149 61q-89 0 -147 -61t-58 -152zM38 263q0 115 75.5 192t190.5 77t192 -77 t77 -192t-76.5 -195t-192.5 -80q-115 0 -190.5 79.5t-75.5 195.5z" horiz-adv-x="611" glyph-name="registered.sc"/>
<glyph d="M5 461v59h241v-59h-84v-201h-71v201h-86zM279 260v260h95l62 -167h2l63 167h92v-260h-66l4 173h-3l-69 -173h-49l-66 173h-3l4 -173h-66z" horiz-adv-x="632" glyph-name="trademark.sc"/>
<glyph d="M196 362v23q-4 -8 -25 -11l-38 -6q-37 -5 -37 -34q0 -34 40 -34q25 0 42.5 16t17.5 46zM114 254q-42 0 -65 20t-23 54q0 67 88 79l48 6q21 3 27.5 7.5t6.5 15.5q0 18 -11.5 30t-34.5 12q-45 0 -48 -43h-64q3 47 34 69.5t78 22.5q115 0 115 -97v-170h-66v29h-1 q-25 -35 -84 -35z" horiz-adv-x="299" glyph-name="ordfeminine.sc"/>
<glyph d="M159 308q30 0 48 22.5t18 59.5t-18 59.5t-48 22.5t-48 -22.5t-18 -59.5q0 -36 18 -59t48 -23zM159 254q-63 0 -99.5 36.5t-36.5 99.5q0 62 37 99.5t99 37.5q63 0 100 -37t37 -100q0 -62 -37.5 -99t-99.5 -37z" horiz-adv-x="318" glyph-name="ordmasculine.sc"/>
<glyph d="M370 240q0 -78 37 -121.5t96 -43.5t96.5 45.5t37.5 123.5t-37.5 123.5t-96.5 45.5t-96 -47t-37 -126zM745 488v-338q2 -92 62 -92q42 0 71 54t29 160q0 164 -107.5 261t-275.5 97q-177 0 -285.5 -113.5t-108.5 -286.5q0 -172 106 -280.5t276 -108.5q134 0 207 74h107 q-109 -143 -316 -143q-205 0 -333.5 128.5t-128.5 329.5t132.5 335.5t343.5 134.5q202 0 333.5 -118t131.5 -310q0 -141 -56 -211t-142 -70q-118 0 -141 100h-3q-63 -103 -177 -103q-92 0 -152 67t-60 185t63.5 189t156.5 71q114 0 160 -95h4v83h103z" horiz-adv-x="1037" glyph-name="at.alt1"/>
<glyph d="M44 344q0 155 96.5 255.5t252.5 100.5q74 0 140.5 -25.5t107.5 -78.5l-74 -71q-56 75 -171 75q-105 0 -170 -71t-65 -185t65 -185t170 -71q115 0 171 75l74 -71q-41 -53 -107.5 -78.5t-140.5 -25.5q-156 0 -252.5 100.5t-96.5 255.5z" horiz-adv-x="672" glyph-name="C.alt1"/>
<glyph d="M391 277v91h307v-68q0 -153 -90 -232.5t-223 -79.5q-151 0 -246 99t-95 253q0 156 98.5 258t255.5 102q176 0 268 -111l-75 -72q-71 83 -194 83q-105 0 -170.5 -73.5t-65.5 -182.5q0 -111 62 -183.5t165 -72.5q86 0 141.5 48.5t59.5 140.5h-198z" horiz-adv-x="750" glyph-name="G.alt1"/>
<glyph d="M84 -10v698h113v-698q0 -86 -37.5 -128t-134.5 -42h-35v91h25q39 0 54 17.5t15 61.5z" horiz-adv-x="282" glyph-name="J.alt1"/>
<glyph d="M84 0v688h113v-688h-113zM524 0l-323 360l295 328h125l-293 -326l325 -362h-129z" horiz-adv-x="661" glyph-name="K.alt1"/>
<glyph d="M84 0v688h128l216 -358h4l218 358h127v-688h-113l4 517l-193 -315h-90l-192 315l4 -517h-113z" horiz-adv-x="861" glyph-name="M.alt1"/>
<glyph d="M367 594h-170v-228h170q60 0 94 33.5t34 86.5q0 50 -34 79t-94 29zM84 0v688h281q117 0 180.5 -53t63.5 -144q0 -67 -33.5 -111t-90.5 -57v-4q25 -9 43 -26.5t31 -47.5t19 -50.5t16 -62.5l32 -132h-114l-29 124q-10 43 -18 65.5t-23.5 44.5t-41 30.5t-64.5 8.5h-139v-273 h-113z" horiz-adv-x="676" glyph-name="R.alt1"/>
<glyph d="M50 91l79 67q22 -35 76.5 -57t109.5 -22q67 0 112.5 29t45.5 84q0 35 -22.5 56.5t-58.5 31t-79.5 16.5t-87 18.5t-79.5 30t-58.5 57t-22.5 94.5q0 95 74.5 149.5t187.5 54.5q79 0 143.5 -23.5t97.5 -71.5l-72 -65q-23 34 -70 51.5t-99 17.5q-65 0 -107.5 -28t-42.5 -77 q0 -40 30.5 -63.5t75.5 -30.5t98.5 -18.5t98.5 -27t75.5 -57t30.5 -106.5q0 -102 -75.5 -157.5t-195.5 -55.5q-88 0 -159.5 25.5t-105.5 77.5z" horiz-adv-x="639" glyph-name="S.alt1"/>
<glyph d="M382 -144l26 92l308 -78l-25 -96zM161 344q0 -112 62.5 -184t163.5 -72q102 0 164.5 72t62.5 184t-62.5 184t-164.5 72q-101 0 -163.5 -72t-62.5 -184zM44 344q0 155 95.5 255.5t247.5 100.5q150 0 247 -101t97 -255t-97 -255t-247 -101q-152 0 -247.5 100.5t-95.5 255.5 z" horiz-adv-x="775" glyph-name="Q.alt1"/>
<glyph d="M296 181q0 -56 28 -88t74 -32q44 0 73 32t30 86v11q-1 54 -29.5 86.5t-72.5 32.5q-45 0 -74 -35.5t-29 -92.5zM596 369v-243q0 -43 12.5 -59.5t36.5 -16.5q33 0 54 37.5t21 117.5q0 123 -83.5 194t-217.5 71q-144 0 -229 -85t-85 -216q0 -129 82.5 -207t218.5 -78 q109 0 165 55h87q-89 -113 -254 -113q-163 0 -264.5 95.5t-101.5 247.5q0 153 105.5 258t274.5 105q163 0 267 -90.5t104 -236.5q0 -108 -46.5 -160.5t-116.5 -52.5q-89 0 -113 68h-2q-46 -67 -138 -67q-76 0 -125.5 49.5t-49.5 137.5q0 89 52 143t127 54q87 0 125 -64h4v56 h90z" horiz-adv-x="827" glyph-name="at.sc.alt1"/>
<glyph d="M45 260q0 117 78 194.5t203 77.5q59 0 115 -23t89 -65l-71 -65q-46 59 -131 59q-77 0 -124 -48.5t-47 -129.5t47 -129.5t124 -48.5q85 0 131 59l71 -65q-33 -42 -89 -65t-115 -23q-125 0 -203 77.5t-78 194.5z" horiz-adv-x="559" glyph-name="c.sc.alt1"/>
<glyph d="M324 206v81h247v-63q0 -113 -73 -174.5t-178 -61.5q-125 0 -200.5 76.5t-75.5 194.5t79 195.5t207 77.5q66 0 125 -23t96 -65l-68 -67q-59 62 -153 62q-79 0 -126 -50t-47 -129q0 -81 44.5 -130.5t124.5 -49.5q64 0 103.5 32t41.5 94h-147z" horiz-adv-x="620" glyph-name="g.sc.alt1"/>
<glyph d="M84 2v518h109v-519q0 -71 -34 -104t-117 -33h-32v79h21q31 0 42 12.5t11 46.5z" horiz-adv-x="277" glyph-name="j.sc.alt1"/>
<glyph d="M84 0v520h109v-520h-109zM436 0l-239 272l219 248h118l-217 -245l243 -275h-124z" glyph-name="k.sc.alt1"/>
<glyph d="M84 0v520h124l163 -260l165 260h123v-520h-108l4 364l-146 -224h-75l-145 223l4 -363h-109z" horiz-adv-x="744" glyph-name="m.sc.alt1"/>
<glyph d="M315 433h-122v-156h122q46 0 72.5 22t26.5 59q0 36 -26.5 55.5t-72.5 19.5zM84 0v520h239q96 0 148 -40.5t52 -109.5q0 -51 -25.5 -85.5t-71.5 -46.5v-2q35 -12 53 -43.5t33 -91.5l24 -101h-109l-21 90q-13 56 -37 78.5t-76 22.5h-100v-191h-109z" horiz-adv-x="586" glyph-name="r.sc.alt1"/>
<glyph d="M30 60l62 68q50 -58 158 -58q119 0 119 75q0 34 -33.5 50t-81.5 22t-95.5 16.5t-81 44.5t-33.5 95q0 76 63 117.5t156 41.5q141 0 197 -68l-62 -64q-49 50 -135 50q-48 0 -79.5 -17.5t-31.5 -50.5q0 -29 24 -45t60.5 -20t78.5 -12.5t78.5 -20.5t60.5 -45t24 -85 q0 -79 -63.5 -122.5t-164.5 -43.5q-152 0 -220 72z" horiz-adv-x="513" glyph-name="s.sc.alt1"/>
<glyph d="M317 -130l21 80l246 -54l-20 -85zM153 260q0 -78 46.5 -128t121.5 -50t121 50t46 128t-46.5 128t-120.5 50q-75 0 -121.5 -49.5t-46.5 -128.5zM41 260q0 118 79 195t201 77t200.5 -77t78.5 -195t-78.5 -195t-200.5 -77t-201 77.5t-79 194.5z" horiz-adv-x="641" glyph-name="q.sc.alt1"/>
<glyph d="M151 240q0 -78 37 -121.5t96 -43.5q58 0 95 43t39 118v8q0 79 -37.5 124t-96.5 45q-58 0 -95.5 -47t-37.5 -126zM39 240q0 118 64.5 189t161.5 71q111 0 154 -85h4v73h103v-488h-103v73h-4q-43 -85 -162 -85q-95 0 -156.5 67t-61.5 185z" horiz-adv-x="600" glyph-name="a.alt1"/>
<glyph d="M39 244q0 116 69 186t184 70q128 0 186 -77l-70 -61q-36 50 -110 50q-64 0 -105.5 -43t-41.5 -125t41.5 -125t105.5 -43q74 0 110 50l70 -61q-58 -77 -186 -77q-115 0 -184 70t-69 186z" horiz-adv-x="503" glyph-name="c.alt1"/>
<glyph d="M281 416q-48 0 -81.5 -31t-44.5 -86h245q-13 117 -119 117zM430 139l68 -60q-72 -91 -213 -91q-116 0 -181 67.5t-65 186.5q0 115 68 186.5t174 71.5q104 0 166 -63t62 -175v-36h-359q4 -71 44 -111t106 -40q75 0 130 64z" horiz-adv-x="551" glyph-name="e.alt1"/>
<glyph d="M151 240q0 -78 37 -121.5t96 -43.5q58 0 95 43t39 118v8q0 79 -37.5 124t-96.5 45q-58 0 -95.5 -47t-37.5 -126zM273 -140q150 0 150 165q0 3 0.5 11t0.5 13t-0.5 13t-0.5 11h-4q-43 -85 -162 -85q-95 0 -156.5 67t-61.5 185t64.5 189t161.5 71q111 0 154 -85h4v73h103 v-463q0 -131 -67.5 -192t-183.5 -61q-131 0 -211 76l57 74q61 -62 152 -62z" horiz-adv-x="600" glyph-name="g.alt1"/>
<glyph d="M73 -220v708h108v-708h-108zM69 622v110h116v-110h-116z" horiz-adv-x="255" glyph-name="j.alt1"/>
<glyph d="M184 263l194 225h116l-192 -223l210 -265h-120zM71 0v732h109v-732h-109z" horiz-adv-x="514" glyph-name="k.alt1"/>
<glyph d="M71 0v488h104v-95h4q22 50 59 72.5t97 22.5h26v-100h-34q-65 0 -106 -34t-41 -108v-246h-109z" horiz-adv-x="370" glyph-name="r.alt1"/>
<glyph d="M29 53l58 65q57 -51 146 -51q108 0 108 70q0 31 -31 45t-75.5 19.5t-88.5 15t-75 41.5t-31 88q0 72 58 113t144 41q134 0 193 -63l-59 -62q-45 46 -134 46q-43 0 -70 -17t-27 -49q0 -31 31.5 -45t76 -19.5t89 -15t76 -41.5t31.5 -88q0 -76 -59.5 -117t-156.5 -41 q-140 0 -204 65z" horiz-adv-x="484" glyph-name="s.alt1"/>
<glyph d="M121 0v404h-112v84h112v148h108v-148h112v-84h-112v-404h-108z" horiz-adv-x="350" glyph-name="t.alt1"/>
<glyph d="M65 207v281h108v-279q0 -133 112 -133q111 0 111 133v279h108v-281q0 -108 -56.5 -163.5t-162.5 -55.5q-107 0 -163.5 55.5t-56.5 163.5z" horiz-adv-x="569" glyph-name="u.alt1"/>
<glyph d="M266 -141q63 0 99 32t36 116v64h-4q-42 -83 -151 -83q-81 0 -131 48.5t-50 155.5v296h108v-282q0 -130 104 -130q53 0 86 43t33 118v251h108v-478q0 -238 -238 -238q-126 0 -205 73l57 73q59 -59 148 -59z" horiz-adv-x="577" glyph-name="y.alt1"/>
<glyph d="M260 0v83h35q70 0 110 38.5t40 97.5q0 55 -39.5 93.5t-110.5 38.5h-15v83h6q64 0 99.5 34t35.5 87q0 47 -31.5 76t-82.5 29q-54 0 -90 -35t-36 -100v-525h-108v522q0 107 67 164.5t170 57.5q98 0 158.5 -49.5t60.5 -133.5q0 -58 -33 -101.5t-86 -57.5v-4q59 -13 101 -62 t42 -123q0 -92 -67 -152.5t-190 -60.5h-36z" horiz-adv-x="593" glyph-name="germandbls.alt1"/>
<glyph d="M598 416q-48 0 -79 -31t-41 -86h230q-12 117 -110 117zM366 196v49q-14 -17 -50 -23l-84 -14q-79 -12 -79 -72q0 -30 22 -48.5t61 -18.5q54 0 91 32t39 95zM45 125q0 123 163 149l95 16q39 6 51 13.5t12 25.5q0 39 -24 64.5t-72 25.5q-44 0 -72 -22t-31 -64h-103 q6 84 63.5 125.5t142.5 41.5q117 0 166 -67q61 67 162 67q99 0 159 -63.5t60 -174.5v-36h-344q5 -72 40.5 -111.5t96.5 -39.5q74 0 127 63l69 -60q-71 -90 -205 -90q-135 0 -192 101q-58 -101 -192 -101q-83 0 -127.5 37t-44.5 100z" horiz-adv-x="859" glyph-name="ae.alt1"/>
<glyph d="M662 416q-47 0 -80.5 -31t-44.5 -86h244q-13 117 -119 117zM151 244q0 -76 37.5 -122.5t99.5 -46.5t99.5 46.5t37.5 122.5q0 79 -37.5 124t-99.5 45t-99.5 -46.5t-37.5 -122.5zM811 139l68 -60q-72 -91 -211 -91q-131 0 -192 89q-62 -89 -188 -89q-114 0 -181.5 68.5 t-67.5 187.5q0 117 69.5 186.5t179.5 69.5q131 0 192 -93q64 93 182 93q105 0 166.5 -63t61.5 -175v-36h-358q5 -71 44 -111t105 -40q77 0 130 64z" horiz-adv-x="929" glyph-name="oe.alt1"/>
<glyph d="M347 -86l26 75q-148 7 -238.5 106t-90.5 249q0 155 96.5 255.5t252.5 100.5q74 0 140.5 -25.5t107.5 -78.5l-74 -71q-56 75 -171 75q-105 0 -170 -71t-65 -185t65 -185t170 -71q115 0 171 75l74 -71q-74 -96 -228 -103v-26q44 -2 68 -26.5t24 -60.5q0 -43 -30 -69.5 t-87 -26.5h-61v59h53q49 0 49 38q0 37 -49 37h-33z" horiz-adv-x="672" glyph-name="Ccedilla.alt1"/>
<glyph d="M366 -10v698h113v-698q0 -86 -37.5 -128t-134.5 -42h-35v91h25q39 0 54 17.5t15 61.5zM84 0v688h113v-688h-113z" horiz-adv-x="564" glyph-name="IJ.alt1"/>
<glyph d="M282 767l-128 164h95l77 -106l78 106h95l-128 -164h-89zM50 91l79 67q22 -35 76.5 -57t109.5 -22q67 0 112.5 29t45.5 84q0 35 -22.5 56.5t-58.5 31t-79.5 16.5t-87 18.5t-79.5 30t-58.5 57t-22.5 94.5q0 95 74.5 149.5t187.5 54.5q79 0 143.5 -23.5t97.5 -71.5l-72 -65 q-23 34 -70 51.5t-99 17.5q-65 0 -107.5 -28t-42.5 -77q0 -40 30.5 -63.5t75.5 -30.5t98.5 -18.5t98.5 -27t75.5 -57t30.5 -106.5q0 -102 -75.5 -157.5t-195.5 -55.5q-88 0 -159.5 25.5t-105.5 77.5z" horiz-adv-x="639" glyph-name="Scaron.alt1"/>
<glyph d="M279 -86l26 75q-117 7 -188.5 83t-71.5 188q0 117 78 194.5t203 77.5q59 0 115 -23t89 -65l-71 -65q-46 59 -131 59q-77 0 -124 -48.5t-47 -129.5t47 -129.5t124 -48.5q85 0 131 59l71 -65q-31 -39 -81 -61.5t-104 -25.5v-26q44 -2 68 -26.5t24 -60.5q0 -43 -30 -69.5 t-87 -26.5h-61v59h53q49 0 49 38q0 37 -49 37h-33z" horiz-adv-x="559" glyph-name="ccedilla.sc.alt1"/>
<glyph d="M361 2v518h109v-519q0 -71 -34 -104t-117 -33h-32v79h21q31 0 42 12.5t11 46.5zM84 0v520h109v-520h-109z" horiz-adv-x="554" glyph-name="ij.sc.alt1"/>
<glyph d="M218 600l-128 164h95l77 -106l78 106h95l-128 -164h-89zM30 60l62 68q50 -58 158 -58q119 0 119 75q0 34 -33.5 50t-81.5 22t-95.5 16.5t-81 44.5t-33.5 95q0 76 63 117.5t156 41.5q141 0 197 -68l-62 -64q-49 50 -135 50q-48 0 -79.5 -17.5t-31.5 -50.5q0 -29 24 -45 t60.5 -20t78.5 -12.5t78.5 -20.5t60.5 -45t24 -85q0 -79 -63.5 -122.5t-164.5 -43.5q-152 0 -220 72z" horiz-adv-x="513" glyph-name="scaron.sc.alt1"/>
<glyph d="M257 568l-146 164h120l102 -164h-76zM151 240q0 -78 37 -121.5t96 -43.5q58 0 95 43t39 118v8q0 79 -37.5 124t-96.5 45q-58 0 -95.5 -47t-37.5 -126zM39 240q0 118 64.5 189t161.5 71q111 0 154 -85h4v73h103v-488h-103v73h-4q-43 -85 -162 -85q-95 0 -156.5 67 t-61.5 185z" horiz-adv-x="600" glyph-name="agrave.alt1"/>
<glyph d="M240 568l102 164h120l-146 -164h-76zM151 240q0 -78 37 -121.5t96 -43.5q58 0 95 43t39 118v8q0 79 -37.5 124t-96.5 45q-58 0 -95.5 -47t-37.5 -126zM39 240q0 118 64.5 189t161.5 71q111 0 154 -85h4v73h103v-488h-103v73h-4q-43 -85 -162 -85q-95 0 -156.5 67 t-61.5 185z" horiz-adv-x="600" glyph-name="aacute.alt1"/>
<glyph d="M130 600v104h103v-104h-103zM340 600v104h102v-104h-102zM151 240q0 -78 37 -121.5t96 -43.5q58 0 95 43t39 118v8q0 79 -37.5 124t-96.5 45q-58 0 -95.5 -47t-37.5 -126zM39 240q0 118 64.5 189t161.5 71q111 0 154 -85h4v73h103v-488h-103v73h-4q-43 -85 -162 -85 q-95 0 -156.5 67t-61.5 185z" horiz-adv-x="600" glyph-name="adieresis.alt1"/>
<glyph d="M114 568l128 164h89l128 -164h-95l-78 106l-77 -106h-95zM151 240q0 -78 37 -121.5t96 -43.5q58 0 95 43t39 118v8q0 79 -37.5 124t-96.5 45q-58 0 -95.5 -47t-37.5 -126zM39 240q0 118 64.5 189t161.5 71q111 0 154 -85h4v73h103v-488h-103v73h-4q-43 -85 -162 -85 q-95 0 -156.5 67t-61.5 185z" horiz-adv-x="600" glyph-name="acircumflex.alt1"/>
<glyph d="M117 591q2 53 27.5 85t72.5 32q32 0 79.5 -23t63.5 -23q34 0 42 48h54q-2 -53 -27.5 -85t-72.5 -32q-32 0 -80 23t-63 23q-36 0 -42 -48h-54zM151 240q0 -78 37 -121.5t96 -43.5q58 0 95 43t39 118v8q0 79 -37.5 124t-96.5 45q-58 0 -95.5 -47t-37.5 -126zM39 240 q0 118 64.5 189t161.5 71q111 0 154 -85h4v73h103v-488h-103v73h-4q-43 -85 -162 -85q-95 0 -156.5 67t-61.5 185z" horiz-adv-x="600" glyph-name="atilde.alt1"/>
<glyph d="M286 608q21 0 36 14.5t15 35.5t-15 35.5t-36 14.5t-35.5 -14.5t-14.5 -35.5t15 -35.5t35 -14.5zM286 559q-43 0 -73 28t-30 71t30.5 71t72.5 28q43 0 73.5 -28t30.5 -71t-30.5 -71t-73.5 -28zM151 240q0 -78 37 -121.5t96 -43.5q58 0 95 43t39 118v8q0 79 -37.5 124 t-96.5 45q-58 0 -95.5 -47t-37.5 -126zM39 240q0 118 64.5 189t161.5 71q111 0 154 -85h4v73h103v-488h-103v73h-4q-43 -85 -162 -85q-95 0 -156.5 67t-61.5 185z" horiz-adv-x="600" glyph-name="aring.alt1"/>
<glyph d="M245 -86l26 75q-106 7 -169 76t-63 179q0 116 69 186t184 70q128 0 186 -77l-70 -61q-36 50 -110 50q-64 0 -105.5 -43t-41.5 -125t41.5 -125t105.5 -43q74 0 110 50l70 -61q-55 -71 -167 -76v-26q44 -2 68 -26.5t24 -60.5q0 -43 -30 -69.5t-87 -26.5h-61v59h53 q49 0 49 38q0 37 -49 37h-33z" horiz-adv-x="503" glyph-name="ccedilla.alt1"/>
<glyph d="M244 568l-146 164h120l102 -164h-76zM281 416q-48 0 -81.5 -31t-44.5 -86h245q-13 117 -119 117zM430 139l68 -60q-72 -91 -213 -91q-116 0 -181 67.5t-65 186.5q0 115 68 186.5t174 71.5q104 0 166 -63t62 -175v-36h-359q4 -71 44 -111t106 -40q75 0 130 64z" horiz-adv-x="551" glyph-name="egrave.alt1"/>
<glyph d="M243 568l102 164h120l-146 -164h-76zM281 416q-48 0 -81.5 -31t-44.5 -86h245q-13 117 -119 117zM430 139l68 -60q-72 -91 -213 -91q-116 0 -181 67.5t-65 186.5q0 115 68 186.5t174 71.5q104 0 166 -63t62 -175v-36h-359q4 -71 44 -111t106 -40q75 0 130 64z" horiz-adv-x="551" glyph-name="eacute.alt1"/>
<glyph d="M125 600v104h103v-104h-103zM335 600v104h102v-104h-102zM281 416q-48 0 -81.5 -31t-44.5 -86h245q-13 117 -119 117zM430 139l68 -60q-72 -91 -213 -91q-116 0 -181 67.5t-65 186.5q0 115 68 186.5t174 71.5q104 0 166 -63t62 -175v-36h-359q4 -71 44 -111t106 -40 q75 0 130 64z" horiz-adv-x="551" glyph-name="edieresis.alt1"/>
<glyph d="M109 568l128 164h89l128 -164h-95l-78 106l-77 -106h-95zM281 416q-48 0 -81.5 -31t-44.5 -86h245q-13 117 -119 117zM430 139l68 -60q-72 -91 -213 -91q-116 0 -181 67.5t-65 186.5q0 115 68 186.5t174 71.5q104 0 166 -63t62 -175v-36h-359q4 -71 44 -111t106 -40 q75 0 130 64z" horiz-adv-x="551" glyph-name="ecircumflex.alt1"/>
<glyph d="M328 -220v708h108v-708h-108zM324 622v110h116v-110h-116zM73 0v488h108v-488h-108zM69 622v110h116v-110h-116z" horiz-adv-x="510" glyph-name="ij.alt1"/>
<glyph d="M198 568l-128 164h95l77 -106l78 106h95l-128 -164h-89zM29 53l58 65q57 -51 146 -51q108 0 108 70q0 31 -31 45t-75.5 19.5t-88.5 15t-75 41.5t-31 88q0 72 58 113t144 41q134 0 193 -63l-59 -62q-45 46 -134 46q-43 0 -70 -17t-27 -49q0 -31 31.5 -45t76 -19.5t89 -15 t76 -41.5t31.5 -88q0 -76 -59.5 -117t-156.5 -41q-140 0 -204 65z" horiz-adv-x="484" glyph-name="scaron.alt1"/>
<glyph d="M248 568l-146 164h120l102 -164h-76zM65 207v281h108v-279q0 -133 112 -133q111 0 111 133v279h108v-281q0 -108 -56.5 -163.5t-162.5 -55.5q-107 0 -163.5 55.5t-56.5 163.5z" horiz-adv-x="569" glyph-name="ugrave.alt1"/>
<glyph d="M247 568l102 164h120l-146 -164h-76zM65 207v281h108v-279q0 -133 112 -133q111 0 111 133v279h108v-281q0 -108 -56.5 -163.5t-162.5 -55.5q-107 0 -163.5 55.5t-56.5 163.5z" horiz-adv-x="569" glyph-name="uacute.alt1"/>
<glyph d="M129 600v104h103v-104h-103zM339 600v104h102v-104h-102zM65 207v281h108v-279q0 -133 112 -133q111 0 111 133v279h108v-281q0 -108 -56.5 -163.5t-162.5 -55.5q-107 0 -163.5 55.5t-56.5 163.5z" horiz-adv-x="569" glyph-name="udieresis.alt1"/>
<glyph d="M113 568l128 164h89l128 -164h-95l-78 106l-77 -106h-95zM65 207v281h108v-279q0 -133 112 -133q111 0 111 133v279h108v-281q0 -108 -56.5 -163.5t-162.5 -55.5q-107 0 -163.5 55.5t-56.5 163.5z" horiz-adv-x="569" glyph-name="ucircumflex.alt1"/>
<glyph d="M247 568l102 164h120l-146 -164h-76zM266 -141q63 0 99 32t36 116v64h-4q-42 -83 -151 -83q-81 0 -131 48.5t-50 155.5v296h108v-282q0 -130 104 -130q53 0 86 43t33 118v251h108v-478q0 -238 -238 -238q-126 0 -205 73l57 73q59 -59 148 -59z" horiz-adv-x="577" glyph-name="yacute.alt1"/>
<glyph d="M129 600v104h103v-104h-103zM339 600v104h102v-104h-102zM266 -141q63 0 99 32t36 116v64h-4q-42 -83 -151 -83q-81 0 -131 48.5t-50 155.5v296h108v-282q0 -130 104 -130q53 0 86 43t33 118v251h108v-478q0 -238 -238 -238q-126 0 -205 73l57 73q59 -59 148 -59z" horiz-adv-x="577" glyph-name="ydieresis.alt1"/>
</font>
</defs>
</svg>
