<?xml version="1.0" encoding="utf-8"?>
<!-- Generator: Adobe Illustrator 20.1.0, SVG Export Plug-In . SVG Version: 6.00 Build 0)  -->
<svg version="1.1" id="Layer_1" xmlns="http://www.w3.org/2000/svg" xmlns:xlink="http://www.w3.org/1999/xlink" x="0px" y="0px"
	 viewBox="0 0 55.4 18.9" style="enable-background:new 0 0 55.4 18.9;" xml:space="preserve">
<g>
	<path d="M2,2h51.5v14.9H2V2z M0,18.9h55.4V0H0V18.9z"/>
	<polygon points="43.7,5 43.7,14 50.4,14 50.4,12.3 45.7,12.3 45.7,10.1 49.4,10.1 49.4,8.4 45.7,8.4 45.7,6.6 50.4,6.6 50.4,5 	"/>
	<rect x="30.2" y="5" width="2" height="9"/>
	<polygon points="15.3,5 15.3,14 17.3,14 17.3,10.1 20.8,10.1 20.8,8.4 17.3,8.4 17.3,6.6 21.7,6.6 21.7,5 	"/>
	<path d="M6.7,9.5c0,1.7,1.1,2.9,2.7,2.9s2.7-1.2,2.7-2.9S11,6.6,9.4,6.6S6.7,7.7,6.7,9.5 M14.2,9.5c0,2.5-1.9,4.7-4.7,4.7
		c-2.9,0-4.7-2.2-4.7-4.7s1.9-4.7,4.7-4.7S14.2,6.9,14.2,9.5"/>
	<polygon points="22.8,5 22.8,14 24.8,14 24.8,10.1 28.3,10.1 28.3,8.4 24.8,8.4 24.8,6.6 29.2,6.6 29.2,5 	"/>
	<g>
		<path d="M42.4,7.8l-1.8,0.5c-0.3-1.1-1.2-1.8-2.5-1.8c-1.6,0-2.7,1.2-2.7,3c0,1.7,1.1,2.9,2.7,2.9c1.2,0,2.1-0.7,2.5-1.8l1.8,0.5
			c-0.6,2-2.3,3.1-4.3,3.1c-2.9,0-4.8-2.2-4.8-4.7c0-2.6,1.9-4.7,4.8-4.7C40.2,4.7,41.9,5.8,42.4,7.8z"/>
	</g>
</g>
</svg>
