<?xml version="1.0" encoding="utf-8"?>
<!-- Generator: Adobe Illustrator 20.1.0, SVG Export Plug-In . SVG Version: 6.00 Build 0)  -->
<svg version="1.1" id="Layer_1" xmlns="http://www.w3.org/2000/svg" xmlns:xlink="http://www.w3.org/1999/xlink" x="0px" y="0px"
	 viewBox="0 0 442 110" style="enable-background:new 0 0 442 110;" xml:space="preserve">
<style type="text/css">
	.st0{fill:#221F1F;}
	.st1{clip-path:url(#SVGID_2_);fill:#221F1F;}
	.st2{clip-path:url(#SVGID_2_);fill:#010101;}
</style>
<polygon class="st0" points="84.3,46.6 87.9,46.6 87.9,55.1 97.7,55.1 97.7,46.6 101.3,46.6 101.3,68 97.7,68 97.7,58.5 87.9,58.5 
	87.9,68 84.3,68 "/>
<g>
	<defs>
		<rect id="SVGID_1_" x="-174" y="-252" width="792" height="612"/>
	</defs>
	<clipPath id="SVGID_2_">
		<use xlink:href="#SVGID_1_"  style="overflow:visible;"/>
	</clipPath>
	<path class="st1" d="M104.4,64.3c0-3.3,2.8-5.6,10-6.4v-0.5c0-1.5-0.8-2.2-2.5-2.2c-2.1,0-3.9,1-5.2,2.1l-1.7-2.2
		c1.7-1.5,4.2-2.8,7.4-2.8c4.1,0,5.5,2,5.5,5.6v6.3c0,1.8,0.1,3,0.4,3.8h-3.6c-0.2-0.6-0.3-1.1-0.3-2c-1.6,1.6-3.4,2.2-5.7,2.2
		C106.3,68.3,104.4,66.9,104.4,64.3 M114.5,63.7v-3.4c-4.3,0.6-6.5,1.6-6.5,3.3c0,1.2,0.8,1.8,2.1,1.8
		C111.9,65.5,113.3,64.8,114.5,63.7"/>
	<path class="st1" d="M121.5,52.7h3.6v2.5h0.1c1-1.5,2.6-2.8,5.5-2.8h0.2l-0.1,3.3c-0.2,0-0.8-0.1-1-0.1c-2.3,0-3.7,1.1-4.8,2.7V68
		h-3.6V52.7z"/>
	<polygon class="st1" points="132.2,52.7 135.9,52.7 139.7,64 139.8,64 143.5,52.7 147,52.7 141.4,68.1 137.8,68.1 	"/>
	<path class="st1" d="M147.9,64.3c0-3.3,2.8-5.6,10-6.4v-0.5c0-1.5-0.8-2.2-2.5-2.2c-2.1,0-3.9,1-5.2,2.1l-1.7-2.2
		c1.7-1.5,4.2-2.8,7.4-2.8c4.1,0,5.5,2,5.5,5.6v6.3c0,1.8,0.1,3,0.4,3.8h-3.6c-0.2-0.6-0.4-1.1-0.4-2c-1.6,1.6-3.4,2.2-5.7,2.2
		C149.7,68.3,147.9,66.9,147.9,64.3 M157.9,63.7v-3.4c-4.3,0.6-6.5,1.6-6.5,3.3c0,1.2,0.8,1.8,2.1,1.8
		C155.3,65.5,156.8,64.8,157.9,63.7"/>
	<path class="st1" d="M164.9,52.7h3.6v2.5h0.1c1-1.5,2.6-2.8,5.5-2.8h0.2l-0.1,3.3c-0.2,0-0.7-0.1-1-0.1c-2.3,0-3.7,1.1-4.8,2.7V68
		h-3.6V52.7z"/>
	<path class="st1" d="M175.6,60.4c0-5.3,2.6-8,6.6-8c1.7,0,3.3,0.7,4.4,1.9v-7.7h3.6v17.7c0,1.8,0.1,3,0.5,3.8H187
		c-0.2-0.4-0.3-1.3-0.3-2.1c-1.1,1.3-2.6,2.3-4.9,2.3C178.2,68.3,175.6,65.7,175.6,60.4 M186.6,63.4v-6.2c-1-1.2-2.3-1.9-3.6-1.9
		c-2.7,0-3.8,1.7-3.8,5.1c0,3.2,1.4,4.9,3.7,4.9C184.4,65.3,185.8,64.4,186.6,63.4"/>
	<path class="st1" d="M201.1,60.2V46.6h3.6v13.3c0,3.3,1.4,5.2,4.7,5.2c3.3,0,4.7-1.9,4.7-5.2V46.6h3.6v13.6c0,4.9-2.8,8.2-8.3,8.2
		C203.5,68.4,201.1,65.1,201.1,60.2"/>
	<path class="st1" d="M221.6,52.7h3.6v2.1c1-1,2.8-2.4,5.6-2.4c2.7,0,4.4,1.6,4.4,4.6v11h-3.6V57.9c0-1.7-0.7-2.5-2.3-2.5
		c-1.6,0-2.9,0.8-4.2,2V68h-3.6V52.7z"/>
	<path class="st1" d="M238.8,46.9h3.7V50h-3.7V46.9z M238.8,52.6h3.6V68h-3.6V52.6z"/>
	<polygon class="st1" points="244.5,52.7 248.2,52.7 252,64 252.1,64 255.8,52.7 259.3,52.7 253.7,68.1 250.1,68.1 	"/>
	<path class="st1" d="M259.9,60.4c0-5.9,4.1-8,7.3-8c3.5,0,6.8,2.1,6.8,8.3v0.8h-10.5c0.1,2.8,1.9,4,4.1,4c2,0,3.2-0.7,4.3-1.8
		l1.9,1.9c-1.6,1.8-3.7,2.8-6.5,2.8C263.5,68.3,259.9,66,259.9,60.4 M270.7,58.8c-0.2-2.3-1.4-3.6-3.5-3.6c-1.7,0-3.3,1-3.7,3.6
		H270.7z"/>
	<path class="st1" d="M276.9,52.7h3.6v2.5h0.1c1-1.5,2.6-2.8,5.5-2.8h0.2l-0.1,3.3c-0.2,0-0.8-0.1-1-0.1c-2.3,0-3.7,1.1-4.8,2.7V68
		h-3.6V52.7z"/>
	<path class="st1" d="M287.5,65.9l1.9-2.2c1.2,1,2.9,1.8,4.8,1.8c1.9,0,3.1-0.5,3.1-1.8c0-1.2-1.6-1.6-3.4-2.1
		c-2.6-0.6-5.8-1.3-5.8-4.9c0-2.7,2.3-4.5,5.7-4.5c2.9,0,4.7,0.8,6.3,2.2l-1.7,2.3c-1.1-0.9-3-1.7-4.3-1.7c-2,0-2.6,0.7-2.6,1.6
		c0,1.2,1.5,1.6,3.4,2c2.6,0.6,5.9,1.2,5.9,4.8c0,3.2-2.9,4.7-6.4,4.7C291.4,68.3,288.9,67.3,287.5,65.9"/>
	<path class="st1" d="M303.5,46.9h3.7V50h-3.7V46.9z M303.5,52.6h3.6V68h-3.6V52.6z"/>
	<path class="st1" d="M312,64v-8.5h-2.7v-2.8h2.7v-5.4h3.6v5.4h4v2.8h-4v7.6c0,1.6,0.5,2.3,2.3,2.3c0.5,0,1.2-0.1,1.5-0.2V68
		c-0.4,0.1-1.7,0.2-2.6,0.2C312.9,68.2,312,66.8,312,64"/>
	<path class="st1" d="M320.7,73.5l0.8-2.9c0.4,0.1,1.4,0.3,2.6,0.3c1.3,0,1.9-0.5,2.4-1.7l0.4-1.1l-5.9-15.5h3.7l4,11.2h0.1
		l3.9-11.2h3.5l-6.6,17.1c-1,2.7-2.3,4.3-5.4,4.3C322.5,74,321.5,73.7,320.7,73.5"/>
	<path class="st1" d="M83.3,90.7c0-6.9,3.7-11,9.5-11c4.1,0,7,1.9,8.3,6.7l-3.4,0.9c-1-3.2-2.4-4.3-5-4.3c-2.5,0-5.8,1.6-5.8,7.6
		c0,6,2.9,8,5.9,8c2.8,0,4.8-1.7,5-4.8h-4.3v-2.9h7.8v10.6h-3v-3.1h-0.1c-0.7,1.5-2.6,3.5-5.9,3.5C86.3,101.9,83.3,97.2,83.3,90.7"
		/>
	<path class="st1" d="M105.2,86.1h3.6v2.5h0.1c1-1.5,2.6-2.8,5.5-2.8h0.2l-0.1,3.3c-0.2,0-0.8-0.1-1-0.1c-2.3,0-3.7,1.1-4.8,2.7v9.7
		h-3.6V86.1z"/>
	<path class="st1" d="M116,97.8c0-3.3,2.8-5.6,10-6.4v-0.5c0-1.5-0.8-2.2-2.5-2.2c-2.1,0-3.9,1-5.2,2.1l-1.7-2.2
		c1.7-1.5,4.2-2.8,7.4-2.8c4.1,0,5.5,2,5.5,5.6v6.3c0,1.9,0.1,3,0.4,3.8h-3.6c-0.2-0.6-0.3-1.1-0.3-2c-1.6,1.6-3.4,2.2-5.7,2.2
		C117.8,101.7,116,100.3,116,97.8 M126,97.2v-3.4c-4.3,0.6-6.5,1.6-6.5,3.3c0,1.2,0.8,1.9,2.1,1.9C123.5,99,124.9,98.3,126,97.2"/>
	<path class="st1" d="M132.2,93.8c0-5.3,2.6-8,6.6-8c1.7,0,3.3,0.7,4.4,1.9v-7.7h3.6v17.7c0,1.9,0.1,3,0.5,3.8h-3.7
		c-0.2-0.4-0.3-1.3-0.3-2.1c-1.1,1.3-2.6,2.3-4.9,2.3C134.8,101.7,132.2,99.2,132.2,93.8 M143.2,96.9v-6.2c-1-1.2-2.3-1.9-3.6-1.9
		c-2.7,0-3.8,1.7-3.8,5.2c0,3.2,1.4,4.9,3.7,4.9C141,98.8,142.4,97.9,143.2,96.9"/>
	<path class="st1" d="M150.3,97.1v-11h3.6v10.2c0,1.7,0.7,2.5,2.3,2.5c1.6,0,2.9-0.8,4.2-2V86.1h3.6v15.4h-3.6v-2.1
		c-1,1-2.8,2.4-5.6,2.4C152,101.8,150.3,100.2,150.3,97.1"/>
	<path class="st1" d="M166.6,97.8c0-3.3,2.8-5.6,10-6.4v-0.5c0-1.5-0.8-2.2-2.5-2.2c-2.1,0-3.9,1-5.2,2.1l-1.7-2.2
		c1.6-1.5,4.2-2.8,7.4-2.8c4.1,0,5.5,2,5.5,5.6v6.3c0,1.9,0.1,3,0.4,3.8H177c-0.2-0.6-0.3-1.1-0.3-2c-1.6,1.6-3.4,2.2-5.7,2.2
		C168.5,101.7,166.6,100.3,166.6,97.8 M176.6,97.2v-3.4c-4.3,0.6-6.5,1.6-6.5,3.3c0,1.2,0.8,1.9,2.1,1.9
		C174.1,99,175.5,98.3,176.6,97.2"/>
	<path class="st1" d="M184.8,97.5v-8.5h-2.7v-2.8h2.7v-5.4h3.6v5.4h4v2.8h-4v7.6c0,1.6,0.5,2.3,2.3,2.3c0.5,0,1.2-0.1,1.5-0.2v2.8
		c-0.4,0.1-1.7,0.2-2.6,0.2C185.7,101.7,184.8,100.2,184.8,97.5"/>
	<path class="st1" d="M193.8,93.8c0-5.8,4.1-8,7.3-8c3.5,0,6.8,2.1,6.8,8.3V95h-10.5c0.1,2.8,1.9,4,4.1,4c2,0,3.2-0.7,4.3-1.8
		l1.9,1.9c-1.6,1.8-3.7,2.8-6.5,2.8C197.4,101.8,193.8,99.5,193.8,93.8 M204.6,92.3c-0.2-2.3-1.4-3.6-3.5-3.6c-1.7,0-3.3,1-3.7,3.6
		H204.6z"/>
	<path class="st1" d="M217.1,96.4l2.9-1.5c1.3,2.5,3.2,3.7,5.9,3.7c2.6,0,4.4-0.8,4.4-2.8c0-1.9-1.3-2.7-4.9-3.8
		c-4.1-1.2-7.5-2.3-7.5-6.4c0-3.6,3-6,7.3-6c4.2,0,6.7,2.1,8,4.6l-2.6,1.8c-1.3-2.1-3.1-3.1-5.4-3.1c-2.4,0-3.7,0.9-3.7,2.4
		c0,2,1.5,2.7,5,3.7c4.1,1.2,7.3,2.5,7.3,6.5c0,3.5-3,6.2-8.1,6.2C221.5,101.9,218.4,99.7,217.1,96.4"/>
	<path class="st1" d="M236.2,93.8c0-5.9,4-8,7.4-8c3.8,0,5.4,2.1,6.4,4.5l-3,1.1c-0.6-1.7-1.7-2.6-3.4-2.6c-2,0-3.7,1.3-3.7,5
		c0,3.3,1.3,5.1,3.7,5.1c1.6,0,2.8-0.5,3.6-2.7l3,1.1c-1.1,2.5-2.9,4.5-6.6,4.5C239.8,101.8,236.2,99.4,236.2,93.8"/>
	<path class="st1" d="M252.5,80.1h3.6v8.1c1-1,2.8-2.4,5.6-2.4c2.7,0,4.4,1.6,4.4,4.6v11h-3.6V91.4c0-1.7-0.7-2.5-2.3-2.5
		c-1.6,0-2.9,0.8-4.2,2v10.6h-3.6V80.1z"/>
	<path class="st1" d="M268.9,93.8c0-5.7,3.7-8,7.5-8c3.7,0,7.5,2.3,7.5,8c0,5.6-3.8,8-7.5,8C272.6,101.8,268.9,99.4,268.9,93.8
		 M280.3,93.8c0-2.9-1.2-4.9-3.9-4.9c-2.6,0-3.9,1.9-3.9,4.9c0,2.9,1.2,5,3.9,5C279,98.8,280.3,97,280.3,93.8"/>
	<path class="st1" d="M286,93.8c0-5.7,3.7-8,7.5-8c3.7,0,7.5,2.3,7.5,8c0,5.6-3.8,8-7.5,8C289.7,101.8,286,99.4,286,93.8
		 M297.4,93.8c0-2.9-1.2-4.9-3.9-4.9c-2.6,0-3.9,1.9-3.9,4.9c0,2.9,1.2,5,3.9,5C296,98.8,297.4,97,297.4,93.8"/>
	<rect x="303.9" y="80.1" class="st1" width="3.6" height="21.4"/>
	<path class="st1" d="M317.5,93.8c0-5.7,3.7-8,7.5-8c3.7,0,7.5,2.3,7.5,8c0,5.6-3.8,8-7.5,8C321.3,101.8,317.5,99.4,317.5,93.8
		 M329,93.8c0-2.9-1.2-4.9-3.9-4.9c-2.6,0-3.9,1.9-3.9,4.9c0,2.9,1.2,5,3.9,5C327.6,98.8,329,97,329,93.8"/>
	<path class="st1" d="M336.5,88.9h-2.7v-2.8h2.7v-1.6c0-2.6,1.1-4.6,5-4.6c0.7,0,1.9,0.1,2.1,0.1v2.7c-0.2-0.1-0.8-0.1-1.2-0.1
		c-1.3,0-2.3,0.3-2.3,2v1.4h3.4v2.8h-3.4v12.5h-3.6V88.9z"/>
	<path class="st1" d="M353.2,80.1h6.1c6.7,0,11.1,3.1,11.1,10.6c0,7.6-4.5,10.8-11.1,10.8h-6.1V80.1z M359.7,98.2
		c4.9,0,7.2-2.1,7.2-7.6c0-5.2-2.3-7.3-7.3-7.3h-2.7v14.8H359.7z"/>
	<path class="st1" d="M372.8,93.8c0-5.8,4.1-8,7.3-8c3.4,0,6.8,2.1,6.8,8.3V95h-10.5c0.1,2.8,1.9,4,4.1,4c2,0,3.2-0.7,4.3-1.8
		l1.9,1.9c-1.6,1.8-3.7,2.8-6.5,2.8C376.4,101.8,372.8,99.5,372.8,93.8 M383.6,92.3c-0.2-2.3-1.4-3.6-3.5-3.6c-1.7,0-3.3,1-3.7,3.6
		H383.6z"/>
	<path class="st1" d="M388.7,99.4l1.9-2.2c1.2,1,2.9,1.8,4.8,1.8c1.9,0,3.1-0.5,3.1-1.8c0-1.2-1.6-1.6-3.4-2.1
		c-2.6-0.6-5.8-1.3-5.8-4.9c0-2.7,2.3-4.5,5.7-4.5c2.9,0,4.7,0.8,6.3,2.2l-1.7,2.3c-1.1-0.9-3-1.7-4.3-1.7c-2,0-2.6,0.7-2.6,1.6
		c0,1.2,1.5,1.6,3.4,2c2.6,0.6,5.9,1.2,5.9,4.8c0,3.2-2.9,4.7-6.4,4.7C392.6,101.8,390.1,100.8,388.7,99.4"/>
	<path class="st1" d="M404.7,80.4h3.7v3.1h-3.7V80.4z M404.7,86.1h3.6v15.4h-3.6V86.1z"/>
	<path class="st1" d="M410.4,103.7c0-1.5,1-2.6,2.5-3.2c-0.8-0.4-1.2-1-1.2-1.9c0-1.2,0.9-2.1,2.1-2.8c-1.6-1-2.4-2.5-2.4-4.4
		c0-3.2,2.4-5.5,6.5-5.5c2.1,0,3.7,0.7,4.7,1.6c1-0.8,2.5-1.4,3.8-1.5v2.9c-0.7,0-1.7,0.1-2.7,0.4c0.3,0.6,0.6,1.3,0.6,2.1
		c0,3.2-2.4,5.5-6.4,5.5c-0.9,0-1.4-0.1-2.1-0.3c-0.5,0.3-0.8,0.6-0.8,1c0,0.6,0.4,0.8,1.8,0.9l2.7,0.2c4.5,0.3,6.3,1.5,6.3,4.2
		c0,3.2-3.2,4.7-7.9,4.7C412.5,107.4,410.4,105.9,410.4,103.7 M422.6,103.1c0-1.1-0.8-1.5-3.9-1.7l-2.7-0.2c-0.3,0-0.6,0-0.9-0.1
		c-1,0.5-1.4,1.2-1.4,2c0,1.4,1.6,1.8,4.7,1.8C421,104.9,422.6,104.2,422.6,103.1 M421,91.4c0-1.9-1.1-3-3.1-3c-2,0-3.1,1.1-3.1,3
		c0,1.9,1.2,2.9,3.2,2.9C419.9,94.3,421,93.3,421,91.4"/>
	<path class="st1" d="M428.7,86.1h3.6v2.1c1-1,2.8-2.4,5.6-2.4c2.7,0,4.4,1.6,4.4,4.6v11h-3.6V91.4c0-1.7-0.7-2.5-2.3-2.5
		c-1.6,0-2.9,0.8-4.2,2v10.6h-3.6V86.1z"/>
	<path class="st2" d="M38.3,33.6c2.1-15.7,4.1-31.2,4.2-32.1c1.4,1.1,25.2,19.3,25.7,19.7c0,0.3-2.1,16.1-4.2,32.1L38.3,33.6z
		 M59.6,86.6C58.3,85.6,38,70,34.4,67.3l29.3-12.1C61.7,70.6,59.7,85.7,59.6,86.6 M38.1,34.9c3.5,2.7,23.9,18.3,25.2,19.3
		C61.8,54.8,37.9,64.7,34,66.3C34.4,63.4,36.2,49.2,38.1,34.9 M32.9,66.1C29.4,63.4,9,47.8,7.7,46.8C9.3,46.2,33.1,36.3,37,34.7
		C36.7,37.6,34.8,51.8,32.9,66.1 M28.5,99.5C27.1,98.4,3.3,80.1,2.8,79.8c0-0.3,2.1-16.1,4.2-32.1l25.7,19.7
		C30.7,83.1,28.6,98.6,28.5,99.5 M11.4,14.4c1.3,1,21.6,16.6,25.2,19.3L7.3,45.8C9.3,30.4,11.3,15.3,11.4,14.4 M41.7-0.5l-0.1,0.9
		l-4.3,32.4L10.6,12.4l-0.1,0.9L1.7,80.2l27.7,21.2l4.4-33.3l26.7,20.5l8.9-67.8L41.7-0.5z"/>
</g>
</svg>
