<?xml version="1.0" encoding="utf-8"?>
<!-- Generator: Adobe Illustrator 20.1.0, SVG Export Plug-In . SVG Version: 6.00 Build 0)  -->
<svg version="1.1" id="Layer_1" xmlns="http://www.w3.org/2000/svg" xmlns:xlink="http://www.w3.org/1999/xlink" x="0px" y="0px"
	 viewBox="0 0 187.8 63.5" style="enable-background:new 0 0 187.8 63.5;" xml:space="preserve">
<g>
	<polygon points="79.6,0.4 79.6,19.1 93.4,19.1 93.4,15.6 83.7,15.6 83.7,11.1 91.5,11.1 91.5,7.6 83.7,7.6 83.7,3.9 93.4,3.9 
		93.4,0.4 	"/>
	<rect x="52.1" y="0.4" width="4.2" height="18.7"/>
	<polygon points="21.4,0.4 21.4,19.1 25.6,19.1 25.6,11.1 32.8,11.1 32.8,7.6 25.6,7.6 25.6,3.9 34.8,3.9 34.8,0.4 	"/>
	<g>
		<path d="M4.2,9.8c0,3.6,2.3,6.1,5.7,6.1s5.7-2.5,5.7-6.1c0-3.6-2.3-6.1-5.7-6.1S4.2,6.2,4.2,9.8 M19.8,9.8c0,5.3-3.9,9.8-9.9,9.8
			c-6,0-9.9-4.5-9.9-9.8S3.9,0,9.9,0C15.9,0,19.8,4.5,19.8,9.8"/>
	</g>
	<g>
		<path d="M19.2,31.9c0,3.6,2.3,6.1,5.7,6.1c3.4,0,5.7-2.5,5.7-6.1c0-3.6-2.3-6.1-5.7-6.1C21.5,25.9,19.2,28.4,19.2,31.9 M34.8,31.9
			c0,5.3-3.9,9.8-9.9,9.8c-6,0-9.9-4.5-9.9-9.8s3.9-9.8,9.9-9.8C30.9,22.2,34.8,26.7,34.8,31.9"/>
	</g>
	<polygon points="127,44.7 127,48.3 132.4,48.3 132.4,63.5 136.5,63.5 136.5,48.3 141.8,48.3 141.8,44.7 	"/>
	<g>
		<polygon points="36.7,0.4 36.7,19.1 40.9,19.1 40.9,11.1 48.1,11.1 48.1,7.6 40.9,7.6 40.9,3.9 50,3.9 50,0.4 		"/>
		<path d="M44.9,30.1h-4v-4h4c1.5,0,2.2,0.9,2.2,2C47.1,29.2,46.4,30.1,44.9,30.1 M52.7,40.3L48,32.8c2.1-1.1,3.3-2.6,3.3-4.8
			c0-2.9-1.9-5.5-6.1-5.5h-8.4v18.7h4.2v-7.7h2.8l4.9,7.7h4.1V40.3z"/>
		<path d="M40.9,60h4.5c1.7,0,2.7-0.9,2.7-2.3c0-1.4-1-2.2-2.7-2.2h-4.5V60z M40.9,52h3.8c1.5,0,2.2-0.8,2.2-1.9s-0.7-1.9-2.2-1.9
			h-3.8V52z M45,44.7c3.7,0,5.9,2.1,5.9,4.9c0,1.7-0.9,2.9-1.8,3.7c1.6,0.7,3.2,2.3,3.2,4.6c0,3.4-2.9,5.6-6.5,5.6h-9.1V44.7H45z"/>
	</g>
	<polygon points="84.8,44.7 84.8,56.2 76.2,44.7 72.7,44.7 72.7,63.5 76.9,63.5 76.9,52 85.4,63.5 88.9,63.5 88.9,44.7 	"/>
	<rect x="91.1" y="44.7" width="4.2" height="18.7"/>
	<rect x="143.7" y="44.7" width="4.2" height="18.7"/>
	<g>
		<path d="M154.1,54.1c0,3.6,2.3,6.1,5.7,6.1c3.4,0,5.7-2.5,5.7-6.1s-2.3-6.1-5.7-6.1C156.4,48,154.1,50.5,154.1,54.1 M169.6,54.1
			c0,5.3-3.9,9.8-9.9,9.8c-6,0-9.9-4.5-9.9-9.8s3.9-9.8,9.9-9.8C165.7,44.3,169.6,48.9,169.6,54.1"/>
	</g>
	<polygon points="183.6,44.7 183.6,56.2 175.1,44.7 171.6,44.7 171.6,63.5 175.7,63.5 175.7,52 184.2,63.5 187.8,63.5 187.8,44.7 	
		"/>
	<path d="M61.9,50l2.3,6.1h-4.6L61.9,50z M60.3,44.7l-7.5,17.7v1h4.1l1.4-3.9h7.2l1.4,3.9h4.1v-1l-7.5-17.7H60.3z"/>
	<path d="M119.9,50l2.3,6.1h-4.6L119.9,50z M118.3,44.7l-7.5,17.7v1h4.1l1.4-3.9h7.2l1.4,3.9h4.1v-1l-7.5-17.7H118.3z"/>
	<g>
		<path d="M29.7,50.2c0,1.1-0.7,2-2.2,2h-4v-4h4C29,48.3,29.7,49.1,29.7,50.2 M31.2,63.5h4v-1.3L30.6,55c2.1-1.1,3.3-2.6,3.3-4.8
			c0-2.9-1.9-5.5-6.1-5.5h-8.4v18.7h4.2v-7.7h2.8L31.2,63.5z"/>
	</g>
	<polygon points="97.4,44.7 97.4,48.3 104.7,48.3 96.9,60.5 96.9,63.5 109.3,63.5 109.3,60 102.2,60 109.9,47.7 109.9,44.7 	"/>
	<g>
		<path d="M17,56.2c0,3.6-2.1,7.7-8,7.7s-8-4.1-8-7.7V44.7h4.2v11.1c0,2.6,1.1,4.5,3.9,4.5s3.9-1.9,3.9-4.5V44.7H17V56.2z"/>
	</g>
	<polygon points="5.1,26.1 5.1,29.8 12.4,29.8 12.4,33.3 5.1,33.3 5.1,41.3 1,41.3 1,22.6 14.3,22.6 14.3,26.1 	"/>
	<g>
		<path d="M77.2,6.5l-3.8,1c-0.7-2.4-2.6-3.8-5.1-3.8c-3.4,0-5.6,2.5-5.6,6.1c0,3.6,2.2,6.1,5.6,6.1c2.5,0,4.4-1.4,5.1-3.8l3.8,1
			c-1.2,4.2-4.7,6.5-8.9,6.5c-6,0-9.9-4.5-9.9-9.8c0-5.3,3.9-9.8,9.9-9.8C72.4,0,75.9,2.3,77.2,6.5z"/>
	</g>
</g>
</svg>
